<svg width="343" height="354" viewBox="0 0 343 354" fill="none" xmlns="http://www.w3.org/2000/svg">
<g clip-path="url(#clip0_71_288)">
<rect width="342.082" height="353" transform="translate(0.458984 0.984375)" fill="white"/>
<g opacity="0.5">
<g opacity="0.49">
<path d="M342.376 255.347C342.528 200.708 266.147 156.201 171.772 155.938C77.3977 155.674 0.768382 199.754 0.615739 254.393C0.463097 309.032 76.845 353.539 171.219 353.803C265.594 354.066 342.223 309.986 342.376 255.347Z" stroke="black" stroke-width="0.279936" stroke-miterlimit="10"/>
<path d="M311.792 255.26C311.917 210.393 249.206 173.846 171.723 173.629C94.2402 173.413 31.3262 209.61 31.2008 254.477C31.0755 299.344 93.7863 335.891 171.269 336.107C248.752 336.324 311.666 300.127 311.792 255.26Z" stroke="black" stroke-width="0.279936" stroke-miterlimit="10"/>
<path d="M281.219 255.176C281.317 220.088 232.271 191.506 171.672 191.337C111.074 191.168 61.869 219.475 61.771 254.563C61.673 289.651 110.719 318.233 171.317 318.402C231.916 318.571 281.121 290.264 281.219 255.176Z" stroke="black" stroke-width="0.279936" stroke-miterlimit="10"/>
<path d="M250.633 255.09C250.704 229.781 215.329 209.165 171.622 209.043C127.914 208.921 92.4248 229.339 92.3541 254.648C92.2834 279.957 127.658 300.573 171.365 300.695C215.073 300.817 250.562 280.399 250.633 255.09Z" stroke="black" stroke-width="0.279936" stroke-miterlimit="10"/>
</g>
<path d="M251.004 341.999C254.074 343.771 254.1 346.647 251.043 348.407C247.998 350.178 243.027 350.178 239.97 348.407C236.9 346.635 236.887 343.771 239.932 341.999C242.976 340.227 247.934 340.227 251.004 341.999Z" fill="#3D3D3D"/>
<path d="M179.806 316.665C181.348 317.551 181.36 318.989 179.832 319.875C178.303 320.761 175.824 320.761 174.283 319.875C172.741 318.989 172.741 317.551 174.27 316.665C175.798 315.779 178.278 315.779 179.806 316.665Z" fill="#3D3D3D"/>
<path d="M296.503 294.157C299.137 295.672 299.149 298.137 296.542 299.652C293.934 301.167 289.682 301.167 287.049 299.652C284.416 298.137 284.403 295.685 287.023 294.157C289.644 292.629 293.883 292.642 296.503 294.157Z" fill="#3D3D3D"/>
<path d="M177.351 188.573C179.984 190.088 179.997 192.553 177.39 194.069C174.782 195.584 170.53 195.584 167.897 194.069C165.264 192.553 165.251 190.101 167.871 188.573C170.492 187.045 174.731 187.058 177.351 188.573Z" fill="#3D3D3D"/>
<path d="M189.079 172.151C190.543 172.998 190.556 174.359 189.104 175.207C187.653 176.054 185.289 176.054 183.825 175.207C182.361 174.359 182.361 172.998 183.812 172.151C185.264 171.304 187.627 171.304 189.092 172.151H189.079Z" fill="#3D3D3D"/>
<path d="M66.817 175.87C67.9154 176.525 67.9208 177.591 66.8331 178.246C65.7454 178.901 63.9718 178.901 62.8733 178.246C61.7749 177.591 61.7695 176.531 62.8626 175.87C63.9503 175.215 65.7239 175.215 66.817 175.87Z" fill="#3D3D3D"/>
<path d="M281.861 260.528C283.12 261.26 283.133 262.428 281.874 263.16C280.615 263.892 278.585 263.879 277.327 263.16C276.068 262.441 276.055 261.26 277.314 260.528C278.573 259.796 280.602 259.796 281.861 260.528Z" fill="#3D3D3D"/>
<path d="M90.6841 339.611C92.3154 340.548 92.3283 342.076 90.7098 343.026C89.0913 343.963 86.458 343.963 84.8266 343.026C83.1953 342.089 83.1824 340.561 84.8138 339.623C86.4323 338.686 89.0656 338.686 90.6969 339.623L90.6841 339.611Z" fill="#3D3D3D"/>
</g>
<ellipse opacity="0.5" cx="212.23" cy="298.132" rx="47.4493" ry="27.5737" fill="black"/>
<path d="M256.146 317.383V312.465C264.251 307.753 268.799 301.757 269.749 295.593C270.969 303.387 266.422 311.412 256.146 317.383Z" fill="#2B6CB0" stroke="black" stroke-width="0.139968" stroke-linecap="round" stroke-linejoin="round"/>
<path d="M269.747 295.569V295.607C268.796 301.757 264.249 307.767 256.144 312.479C254.705 313.314 253.189 314.084 251.609 314.79L222.425 297.944L226.664 295.479L255.913 278.491C264.185 283.255 268.796 289.341 269.747 295.569Z" fill="#017AFF" stroke="black" stroke-width="0.139968" stroke-linecap="round" stroke-linejoin="round"/>
<path d="M188.963 312.464V317.369C178.546 311.36 173.921 303.271 175.142 295.425C176.131 301.64 180.742 307.7 188.963 312.451V312.464Z" fill="#C53030" stroke="black" stroke-width="0.139968" stroke-miterlimit="10"/>
<path d="M222.426 297.931L193.473 314.752C191.919 314.058 190.403 313.314 188.964 312.466C180.743 307.702 176.132 301.655 175.143 295.44C175.143 295.44 175.13 295.427 175.143 295.402C176.08 289.213 180.615 283.216 188.746 278.491L218.2 295.491L222.439 297.931H222.426Z" fill="#DF3C27" stroke="black" stroke-width="0.139968" stroke-miterlimit="10"/>
<path d="M251.608 314.777C234.576 322.442 210.568 322.442 193.471 314.738L222.424 297.918L251.608 314.764V314.777Z" fill="#257534" stroke="black" stroke-width="0.139968" stroke-miterlimit="10"/>
<path d="M255.912 278.478L222.424 297.931L188.731 278.478C207.228 267.731 237.299 267.731 255.912 278.478Z" fill="#FF6631" stroke="black" stroke-width="0.139968" stroke-miterlimit="10"/>
<path d="M269.748 295.571V295.61C268.797 301.76 264.25 307.769 256.145 312.482L226.665 295.481L222.426 293.042L251.392 276.208L255.901 273.589C266.344 279.611 270.955 287.739 269.735 295.597L269.748 295.571Z" fill="#3182CE" stroke="black" stroke-width="0.139968" stroke-linecap="round" stroke-linejoin="round"/>
<path d="M222.426 293.029L218.187 295.494L188.951 312.481C180.73 307.718 176.119 301.67 175.129 295.455C175.129 295.455 175.117 295.443 175.129 295.417C173.896 287.61 178.444 279.572 188.733 273.576L193.267 276.182L222.426 293.029Z" fill="#E53E3E" stroke="black" stroke-width="0.139968" stroke-miterlimit="10"/>
<path d="M256.145 312.467C254.706 313.301 253.19 314.072 251.61 314.778C234.577 322.443 210.57 322.443 193.473 314.739C191.918 314.046 190.403 313.301 188.964 312.454L218.2 295.466L222.439 293.001L226.678 295.441L256.157 312.441L256.145 312.467Z" fill="#38A169" stroke="black" stroke-width="0.139968" stroke-miterlimit="10"/>
<path d="M255.913 273.561L222.425 293.014L188.732 273.561C207.229 262.814 237.3 262.814 255.913 273.561Z" fill="#ED8936" stroke="black" stroke-width="0.139968" stroke-miterlimit="10"/>
<path d="M256.143 312.467V317.384C237.646 328.119 207.575 328.119 188.963 317.371V312.467C190.401 313.301 191.917 314.059 193.471 314.752C210.581 322.443 234.576 322.443 251.609 314.791C253.189 314.084 254.692 313.314 256.143 312.479V312.467Z" fill="#2F855A" stroke="black" stroke-width="0.139968" stroke-miterlimit="10"/>
<path d="M117.756 236.43L137.076 225.199L136.999 251.205L117.692 262.423L117.756 236.43Z" fill="#CCCCCC" stroke="black" stroke-width="0.139968"/>
<path d="M98.1784 225.199L117.615 236.431L117.551 262.425L98.1018 251.206L98.1784 225.199Z" fill="#48BB78" stroke="black" stroke-width="0.139968"/>
<path d="M117.576 213.859L137.013 225.078L117.692 236.309L98.2551 225.077L117.576 213.859Z" fill="#4ED58D" stroke="black" stroke-width="0.139968"/>
<path d="M90.1881 226.312L109.509 215.081L109.368 267.255L90.0345 278.473L90.1881 226.312Z" fill="#38A169" stroke="black" stroke-width="0.139968"/>
<path d="M70.5999 215.081L90.0492 226.312L89.8955 278.474L70.459 267.256L70.5999 215.081Z" fill="#48BB78" stroke="black" stroke-width="0.139968"/>
<path d="M90.0031 203.741L109.44 214.96L90.1185 226.191L70.6692 214.959L90.0031 203.741Z" fill="#4ED58D" stroke="black" stroke-width="0.139968"/>
<path opacity="0.5" d="M96.0571 222.83V275.318L107.255 280.007L118.452 284.696L117.332 235.987C113.561 234.183 109.494 231.368 109.494 231.368V214.992L96.0571 222.83Z" fill="black" stroke="black" stroke-width="0.279936"/>
<path d="M58.2552 211.199L77.5628 199.981L77.3192 286.695L57.9988 297.913L58.2552 211.199Z" fill="#38A169" stroke="black" stroke-width="0.139968"/>
<path d="M38.6653 199.98L58.1145 211.199L57.8581 297.913L38.4217 286.695L38.6653 199.98Z" fill="#48BB78" stroke="black" stroke-width="0.139968"/>
<path d="M58.0561 188.641L77.4925 199.86L58.1843 211.078L38.7352 199.859L58.0561 188.641Z" fill="#4ED58D" stroke="black" stroke-width="0.139968"/>
<path d="M225.031 4.92111C225.185 4.85691 225.34 4.80555 225.494 4.76703C225.596 4.74135 225.686 4.71567 225.776 4.68999C225.866 4.66431 225.956 4.65147 226.046 4.63863C226.162 4.61295 226.277 4.60011 226.393 4.58727C226.457 4.58727 226.521 4.57443 226.586 4.56159C226.727 4.56159 226.868 4.56159 227.009 4.56159C227.035 4.56159 227.074 4.56159 227.099 4.56159C227.266 4.56159 227.421 4.58727 227.575 4.62579C227.613 4.62579 227.652 4.63863 227.69 4.65147C227.819 4.67715 227.934 4.71567 228.05 4.75419C228.088 4.76703 228.127 4.77987 228.153 4.79271C228.294 4.85691 228.448 4.92111 228.577 4.99815L222.449 1.44145C222.449 1.44145 222.424 1.42861 222.411 1.41577C222.308 1.35157 222.192 1.3002 222.09 1.26168C222.064 1.26168 222.051 1.24884 222.026 1.236C221.987 1.22316 221.948 1.21032 221.923 1.19748C221.871 1.1718 221.807 1.15896 221.756 1.13328C221.692 1.12044 221.627 1.1076 221.563 1.09476C221.525 1.09476 221.486 1.08192 221.447 1.06908C221.422 1.06908 221.409 1.06908 221.383 1.05624C221.255 1.03056 221.126 1.01772 220.985 1.00488C220.985 1.00488 220.972 1.00488 220.959 1.00488C220.934 1.00488 220.895 1.00488 220.869 1.00488C220.767 1.00488 220.664 1.00488 220.561 1.00488C220.523 1.00488 220.484 1.00488 220.458 1.00488C220.394 1.00488 220.33 1.00488 220.266 1.03056C220.201 1.03056 220.15 1.03056 220.086 1.0434C220.034 1.0434 219.983 1.06908 219.919 1.08192C219.829 1.09476 219.739 1.12044 219.649 1.13328C219.598 1.13328 219.559 1.14612 219.508 1.15896C219.456 1.1718 219.405 1.19748 219.367 1.21032C219.212 1.26168 219.058 1.31305 218.904 1.36441C218.853 1.39009 218.801 1.40293 218.737 1.41577C218.711 1.41577 218.673 1.45429 218.647 1.46713C218.377 1.58269 218.108 1.71109 217.838 1.87801L123.13 56.5383C122.783 56.7309 122.449 56.9749 122.115 57.2188C122.064 57.2573 121.999 57.2959 121.948 57.3472C121.64 57.5912 121.331 57.8608 121.036 58.1433C121.01 58.169 120.985 58.1818 120.959 58.2075C120.907 58.2589 120.869 58.3102 120.818 58.3616C120.676 58.5157 120.522 58.6697 120.381 58.8238C120.329 58.8752 120.291 58.9137 120.24 58.9651C120.201 59.0036 120.162 59.0549 120.124 59.0935C120.034 59.1962 119.957 59.2989 119.867 59.4016C119.816 59.4658 119.751 59.53 119.7 59.6071C119.661 59.6584 119.61 59.7226 119.572 59.7868C119.507 59.8639 119.456 59.9538 119.392 60.0308C119.353 60.0822 119.302 60.1464 119.263 60.1977C119.199 60.3004 119.135 60.3903 119.058 60.493C119.019 60.5572 118.968 60.6214 118.929 60.6856C118.916 60.7113 118.891 60.737 118.878 60.7627C118.762 60.9424 118.647 61.1222 118.544 61.3148C118.544 61.3148 118.531 61.3405 118.518 61.3533C118.493 61.3918 118.48 61.4304 118.454 61.4689C118.377 61.5973 118.3 61.7385 118.236 61.8669C118.197 61.9311 118.171 61.9953 118.146 62.0595C118.107 62.1237 118.081 62.1879 118.043 62.2521C118.017 62.3035 117.979 62.3677 117.953 62.4191C117.876 62.5731 117.812 62.7272 117.748 62.8813C117.748 62.907 117.722 62.9327 117.709 62.9712C117.709 62.9712 117.709 62.984 117.709 62.9969C117.619 63.1895 117.542 63.3821 117.465 63.5747C117.452 63.6132 117.439 63.6389 117.426 63.6774C117.401 63.7544 117.375 63.8186 117.349 63.8957C117.311 63.9984 117.272 64.0883 117.247 64.191C117.221 64.268 117.195 64.3451 117.182 64.4221C117.157 64.512 117.131 64.6019 117.105 64.6917C117.092 64.7431 117.067 64.8073 117.054 64.8587C117.028 64.9614 117.002 65.0513 116.977 65.154C116.951 65.2696 116.925 65.3723 116.9 65.4878C116.9 65.5264 116.874 65.5649 116.874 65.6034C116.861 65.6804 116.848 65.7575 116.836 65.8345C116.797 66.0143 116.771 66.1812 116.746 66.361C116.746 66.4123 116.733 66.4508 116.72 66.5022C116.72 66.5407 116.72 66.5921 116.72 66.6306C116.681 67.0158 116.643 67.401 116.643 67.7734L117.247 282.023C117.247 284.065 117.979 285.516 119.148 286.183L125.275 289.74C124.106 289.06 123.387 287.621 123.374 285.58L122.77 71.3301C122.77 70.9577 122.796 70.5725 122.847 70.1873C122.847 70.0974 122.873 70.0076 122.886 69.9048C122.911 69.7379 122.937 69.5581 122.976 69.3912C123.001 69.2757 123.014 69.1601 123.04 69.0317C123.065 68.9161 123.091 68.8134 123.117 68.6979C123.155 68.5438 123.194 68.3897 123.245 68.2356C123.271 68.1457 123.297 68.0559 123.322 67.966C123.374 67.7862 123.438 67.6193 123.502 67.4524C123.528 67.3753 123.554 67.3111 123.579 67.2341C123.669 66.9901 123.759 66.759 123.862 66.515C123.862 66.4894 123.888 66.4637 123.9 66.4252C123.99 66.2197 124.093 66.0014 124.196 65.796C124.234 65.7318 124.26 65.6676 124.299 65.6034C124.401 65.4108 124.504 65.2182 124.62 65.0256C124.645 64.9871 124.658 64.9486 124.684 64.91C124.812 64.6789 124.954 64.4606 125.095 64.2423C125.134 64.1781 125.185 64.1139 125.223 64.0497C125.326 63.8957 125.442 63.7416 125.545 63.5875C125.609 63.5105 125.66 63.4206 125.724 63.3435C125.814 63.2151 125.917 63.0867 126.02 62.9712C126.11 62.8685 126.187 62.7657 126.277 62.663C126.354 62.5731 126.444 62.4704 126.521 62.3805C126.662 62.2265 126.803 62.0724 126.958 61.9183C127.035 61.8412 127.099 61.7771 127.176 61.7C127.471 61.4175 127.78 61.1479 128.088 60.9039C128.139 60.8654 128.204 60.814 128.255 60.7755C128.589 60.5316 128.923 60.2876 129.27 60.095L223.952 5.42188C224.235 5.26779 224.505 5.12655 224.762 5.01099C224.851 4.97247 224.929 4.94679 225.018 4.90827L225.031 4.92111Z" fill="#024684"/>
<path d="M223.951 5.42302C227.535 3.35576 230.451 5.02498 230.464 9.14665L231.068 223.396C231.068 227.518 228.178 232.539 224.594 234.619L129.885 289.279C126.302 291.346 123.373 289.69 123.36 285.568L122.756 71.3184C122.756 67.1967 125.647 62.1634 129.243 60.0961L223.951 5.42302Z" fill="#015EC5"/>
<path d="M220.897 11.0723C224.108 9.22331 226.715 10.7128 226.728 14.3979L227.319 221.984C227.319 225.669 224.724 230.163 221.526 232.025L134.474 282.268C131.262 284.117 128.655 282.628 128.642 278.955L128.051 71.3694C128.051 67.6843 130.646 63.1903 133.844 61.3284L220.897 11.0723Z" fill="#1B1B1B"/>
<path d="M220.896 10.841C224.21 8.92779 226.908 10.4686 226.92 14.2693L227.511 221.855C227.511 225.669 224.827 230.317 221.525 232.23L134.473 282.473C131.159 284.387 128.461 282.846 128.449 279.045L127.858 71.4591C127.858 67.6584 130.529 62.9975 133.844 61.0843L220.896 10.841ZM227.319 221.971L226.728 14.3848C226.728 10.6997 224.094 9.21028 220.896 11.0593L133.844 61.3026C130.632 63.1516 128.038 67.6584 128.05 71.3435L128.641 278.93C128.641 282.602 131.275 284.091 134.473 282.242L221.525 231.999C224.737 230.15 227.331 225.643 227.319 221.958" fill="black"/>
<path d="M213.304 15.4263V16.9671C213.317 22.1545 209.669 28.4718 205.16 31.0912L151.749 61.9203C147.228 64.5268 143.554 62.4339 143.541 57.2465V55.7057L213.317 15.4391L213.304 15.4263Z" fill="black"/>
<mask id="mask0_71_288" style="mask-type:luminance" maskUnits="userSpaceOnUse" x="128" y="10" width="100" height="274">
<path d="M220.895 11.0733C224.107 9.22429 226.714 10.7137 226.727 14.3989L227.318 221.985C227.318 225.67 224.723 230.164 221.525 232.026L134.472 282.269C131.261 284.118 128.654 282.629 128.641 278.956L128.05 71.3704C128.05 67.6853 130.645 63.1912 133.843 61.3294L220.895 11.0733Z" fill="white"/>
</mask>
<g mask="url(#mask0_71_288)">
<g opacity="0.14">
<path d="M228.947 127.518L246.121 153.956L129.833 293.502L112.659 267.064L228.947 127.518Z" fill="white"/>
</g>
<g opacity="0.14">
<path d="M229.141 90.2952L228.936 113.472L112.647 253.005L112.853 229.828L229.141 90.2952Z" fill="white"/>
</g>
</g>
<mask id="path-43-inside-1_71_288" fill="white">
<path d="M258.818 116.339C259.856 115.934 261.07 115.82 262.057 116.39L260.602 115.541C258.983 114.616 258.502 114.261 257.794 113.969C256.845 113.627 255.808 113.83 254.897 114.185C253.783 114.628 160.248 168.94 159.211 169.46C156.985 170.79 155.327 172.982 154.29 175.352C153.696 176.721 153.316 178.216 153.303 179.724L153.379 208.73C153.379 210.605 154.05 211.91 155.112 212.531L158.882 214.724C157.82 214.103 157.162 212.785 157.149 210.922L157.073 181.916C157.099 179.901 157.769 177.912 158.756 176.163C159.78 174.364 161.197 172.729 162.981 171.665C164.6 170.866 256.946 117.099 258.818 116.339Z"/>
</mask>
<path d="M258.818 116.339C259.856 115.934 261.07 115.82 262.057 116.39L260.602 115.541C258.983 114.616 258.502 114.261 257.794 113.969C256.845 113.627 255.808 113.83 254.897 114.185C253.783 114.628 160.248 168.94 159.211 169.46C156.985 170.79 155.327 172.982 154.29 175.352C153.696 176.721 153.316 178.216 153.303 179.724L153.379 208.73C153.379 210.605 154.05 211.91 155.112 212.531L158.882 214.724C157.82 214.103 157.162 212.785 157.149 210.922L157.073 181.916C157.099 179.901 157.769 177.912 158.756 176.163C159.78 174.364 161.197 172.729 162.981 171.665C164.6 170.866 256.946 117.099 258.818 116.339Z" fill="#F2F2F2"/>
<path d="M258.818 116.339L258.767 116.209L258.766 116.209L258.818 116.339ZM262.057 116.39L261.987 116.511L262.127 116.269L262.057 116.39ZM260.602 115.541L260.672 115.42L260.671 115.419L260.602 115.541ZM257.794 113.969L257.847 113.84L257.841 113.838L257.794 113.969ZM254.897 114.185L254.846 114.054L254.845 114.055L254.897 114.185ZM159.211 169.46L159.148 169.334L159.139 169.339L159.211 169.46ZM154.29 175.352L154.162 175.296L154.162 175.296L154.29 175.352ZM153.303 179.724L153.163 179.723L153.163 179.724L153.303 179.724ZM153.379 208.73H153.519L153.519 208.729L153.379 208.73ZM155.112 212.531L155.042 212.652L155.042 212.652L155.112 212.531ZM158.882 214.724L158.812 214.845L158.953 214.603L158.882 214.724ZM157.149 210.922L157.009 210.922L157.009 210.923L157.149 210.922ZM157.073 181.916L156.933 181.914L156.933 181.916L157.073 181.916ZM158.756 176.163L158.634 176.094L158.634 176.094L158.756 176.163ZM162.981 171.665L162.919 171.539L162.909 171.544L162.981 171.665ZM258.869 116.469C259.886 116.072 261.051 115.97 261.987 116.511L262.127 116.269C261.089 115.669 259.825 115.795 258.767 116.209L258.869 116.469ZM262.127 116.269L260.672 115.42L260.531 115.662L261.986 116.511L262.127 116.269ZM260.671 115.419C259.862 114.957 259.341 114.639 258.927 114.397C258.514 114.155 258.21 113.989 257.847 113.84L257.74 114.099C258.085 114.241 258.376 114.399 258.785 114.638C259.194 114.878 259.722 115.199 260.532 115.662L260.671 115.419ZM257.841 113.838C256.845 113.479 255.769 113.695 254.846 114.054L254.948 114.315C255.846 113.965 256.844 113.776 257.746 114.101L257.841 113.838ZM254.845 114.055C254.8 114.073 254.664 114.146 254.46 114.258C254.249 114.375 253.955 114.54 253.581 114.751C252.834 115.174 251.772 115.78 250.439 116.545C247.772 118.073 244.023 120.233 239.552 122.814C230.61 127.977 218.782 134.823 206.955 141.673C183.298 155.374 159.662 169.077 159.148 169.334L159.274 169.585C159.797 169.322 183.448 155.61 207.096 141.915C218.922 135.066 230.75 128.219 239.692 123.057C244.163 120.476 247.912 118.316 250.578 116.787C251.911 116.023 252.973 115.417 253.719 114.995C254.092 114.784 254.386 114.619 254.595 114.504C254.699 114.446 254.782 114.401 254.843 114.368C254.874 114.352 254.898 114.339 254.917 114.33C254.926 114.325 254.933 114.322 254.939 114.319C254.942 114.318 254.944 114.317 254.946 114.316C254.948 114.315 254.948 114.315 254.949 114.315L254.845 114.055ZM159.139 169.339C156.882 170.689 155.208 172.907 154.162 175.296L154.418 175.408C155.447 173.058 157.088 170.892 159.283 169.58L159.139 169.339ZM154.162 175.296C153.561 176.678 153.176 178.192 153.164 179.723L153.443 179.725C153.456 178.239 153.83 176.763 154.419 175.408L154.162 175.296ZM153.163 179.724L153.239 208.73L153.519 208.729L153.443 179.723L153.163 179.724ZM153.239 208.73C153.239 210.636 153.922 211.998 155.042 212.652L155.183 212.41C154.177 211.823 153.519 210.574 153.519 208.73H153.239ZM155.042 212.652L158.812 214.845L158.953 214.603L155.183 212.41L155.042 212.652ZM158.953 214.603C157.948 214.015 157.302 212.755 157.289 210.921L157.009 210.923C157.022 212.815 157.691 214.19 158.812 214.844L158.953 214.603ZM157.289 210.922L157.213 181.916L156.933 181.916L157.009 210.922L157.289 210.922ZM157.213 181.918C157.238 179.932 157.899 177.966 158.878 176.232L158.634 176.094C157.639 177.858 156.959 179.87 156.933 181.914L157.213 181.918ZM158.877 176.232C159.893 174.448 161.295 172.834 163.053 171.785L162.909 171.544C161.1 172.624 159.667 174.279 158.634 176.094L158.877 176.232ZM163.043 171.79C163.453 171.588 169.536 168.073 178.445 162.911C187.36 157.746 199.113 150.927 210.875 144.109C222.636 137.29 234.406 130.473 243.351 125.313C247.824 122.733 251.591 120.568 254.298 119.023C255.652 118.251 256.74 117.635 257.52 117.199C257.909 116.981 258.221 116.809 258.45 116.686C258.682 116.56 258.821 116.489 258.871 116.469L258.766 116.209C258.698 116.237 258.544 116.317 258.317 116.439C258.086 116.564 257.773 116.737 257.383 116.955C256.603 117.391 255.514 118.008 254.16 118.78C251.452 120.325 247.685 122.491 243.212 125.071C234.265 130.231 222.496 137.048 210.734 143.866C198.973 150.685 187.219 157.504 178.305 162.669C169.386 167.836 163.318 171.342 162.919 171.539L163.043 171.79Z" fill="black" mask="url(#path-43-inside-1_71_288)"/>
<path d="M263.722 120.193V120.192C263.722 118.319 263.06 117.027 262.013 116.431C260.965 115.835 259.506 115.92 257.881 116.857L163.03 171.726C161.412 172.663 159.943 174.271 158.878 176.118C157.814 177.965 157.158 180.044 157.158 181.917L157.234 210.923L157.234 210.923C157.234 212.79 157.895 214.079 158.942 214.673C159.99 215.268 161.449 215.183 163.074 214.246C163.074 214.246 163.074 214.246 163.074 214.246L257.925 159.389L263.722 120.193ZM263.722 120.193L263.797 149.198M263.722 120.193L263.797 149.198M263.797 149.198C263.797 149.198 263.797 149.198 263.797 149.198M263.797 149.198V149.198M263.797 149.198C263.797 151.065 263.141 153.141 262.077 154.988C261.012 156.835 259.544 158.446 257.925 159.389L263.797 149.198ZM157.164 210.923L157.088 181.917L157.164 210.923Z" fill="white" stroke="black" stroke-width="0.139968"/>
<path d="M227.824 147.132V147.474L225.648 148.729C225.648 149.033 225.724 149.223 225.85 149.324C225.99 149.426 226.167 149.4 226.42 149.261C226.799 149.046 227.027 148.754 227.103 148.374L227.773 147.981C227.735 148.349 227.596 148.704 227.343 149.071C227.09 149.439 226.787 149.73 226.42 149.933C225.952 150.211 225.585 150.237 225.319 150.034C225.053 149.831 224.914 149.464 224.914 148.919C224.914 148.374 225.041 147.842 225.294 147.348C225.547 146.853 225.914 146.461 226.382 146.195C226.837 145.928 227.179 145.903 227.432 146.08C227.685 146.258 227.811 146.613 227.811 147.132H227.824ZM225.648 148.159L227.103 147.322C227.103 147.069 227.04 146.904 226.926 146.803C226.799 146.714 226.622 146.752 226.394 146.879C226.154 147.018 225.977 147.196 225.838 147.424C225.711 147.664 225.648 147.905 225.635 148.159" fill="#777777"/>
<path d="M223.549 150.705C223.662 150.515 223.738 150.312 223.751 150.096L224.447 149.691C224.409 150.122 224.295 150.54 224.067 150.907C223.84 151.288 223.511 151.604 223.093 151.845C222.613 152.124 222.246 152.162 221.98 151.972C221.714 151.782 221.575 151.402 221.575 150.844C221.575 150.286 221.702 149.742 221.955 149.247C222.208 148.766 222.575 148.386 223.043 148.107C223.46 147.866 223.789 147.803 224.029 147.917C224.257 148.044 224.384 148.31 224.409 148.702L223.713 149.108C223.7 148.905 223.625 148.791 223.511 148.74C223.384 148.69 223.232 148.715 223.043 148.829C222.79 148.981 222.587 149.197 222.461 149.475C222.334 149.754 222.258 150.084 222.271 150.451C222.284 150.819 222.347 151.059 222.473 151.199C222.6 151.326 222.802 151.313 223.055 151.173C223.245 151.059 223.409 150.907 223.523 150.717L223.549 150.705Z" fill="#777777"/>
<path d="M219.829 149.996C220.183 149.794 220.461 149.756 220.651 149.87C220.854 149.984 220.955 150.25 220.967 150.655V153.025L220.272 153.43V151.264C220.272 150.731 220.057 150.592 219.627 150.845C219.411 150.972 219.234 151.162 219.108 151.403C218.969 151.669 218.905 151.935 218.905 152.227V154.229L218.21 154.634V151.01L218.817 150.655L218.868 151.099H218.893C219.083 150.617 219.386 150.262 219.816 150.009L219.829 149.996Z" fill="#777777"/>
<path d="M217.033 151.971C217.261 152.073 217.388 152.313 217.388 152.681V155.101L216.78 155.456L216.73 155.063H216.704C216.502 155.507 216.198 155.862 215.781 156.102C215.439 156.305 215.174 156.343 214.984 156.242C214.782 156.153 214.68 155.938 214.68 155.608C214.68 155.279 214.794 154.937 214.997 154.607C215.212 154.265 215.541 153.986 215.958 153.733C216.211 153.581 216.451 153.479 216.692 153.429V153.086C216.692 152.896 216.641 152.782 216.527 152.719C216.426 152.668 216.262 152.706 216.059 152.82C215.87 152.922 215.73 153.061 215.629 153.226C215.528 153.391 215.477 153.555 215.465 153.707L214.807 154.088C214.807 153.745 214.921 153.378 215.148 153.023C215.364 152.668 215.68 152.377 216.059 152.161C216.439 151.946 216.78 151.857 217.008 151.971H217.033ZM216.704 154.126V154.012C216.489 154.05 216.262 154.138 216.009 154.29C215.806 154.404 215.642 154.544 215.541 154.696C215.427 154.848 215.376 155.013 215.376 155.177C215.376 155.342 215.427 155.431 215.515 155.469C215.604 155.519 215.743 155.481 215.933 155.38C216.16 155.241 216.35 155.063 216.489 154.823C216.629 154.594 216.704 154.366 216.704 154.138" fill="#777777"/>
<path d="M213.366 157.434L213.341 152.226L214.049 151.821L214.062 157.029L213.366 157.434Z" fill="#777777"/>
<path d="M212.163 154.785C212.391 154.886 212.517 155.127 212.517 155.495V157.915L211.91 158.27L211.86 157.877H211.834C211.632 158.32 211.328 158.675 210.911 158.916C210.569 159.119 210.304 159.157 210.114 159.055C209.912 158.967 209.81 158.751 209.81 158.422C209.81 158.092 209.924 157.75 210.127 157.421C210.342 157.079 210.671 156.8 211.088 156.546C211.341 156.394 211.581 156.293 211.822 156.242V155.9C211.822 155.71 211.771 155.596 211.67 155.533C211.556 155.482 211.404 155.533 211.202 155.634C211.012 155.735 210.873 155.875 210.772 156.04C210.671 156.204 210.62 156.369 210.607 156.521L209.949 156.901C209.949 156.559 210.063 156.192 210.291 155.837C210.506 155.482 210.822 155.191 211.202 154.962C211.581 154.734 211.923 154.658 212.151 154.772L212.163 154.785ZM211.834 156.939V156.825C211.619 156.863 211.392 156.952 211.139 157.104C210.936 157.218 210.772 157.357 210.671 157.509C210.557 157.662 210.506 157.826 210.506 157.991C210.506 158.156 210.557 158.244 210.645 158.282C210.734 158.333 210.873 158.295 211.063 158.194C211.29 158.054 211.48 157.877 211.619 157.636C211.758 157.408 211.834 157.18 211.834 156.952" fill="#777777"/>
<path d="M208.673 157.535C209.103 157.485 209.318 157.764 209.33 158.346C209.33 158.79 209.204 159.208 208.976 159.588C208.736 159.981 208.394 160.298 207.977 160.551L206.067 161.654V156.737L207.914 155.66C208.293 155.445 208.597 155.381 208.824 155.47C209.052 155.559 209.179 155.812 209.179 156.205C209.179 156.674 209.014 157.105 208.685 157.497V157.523L208.673 157.535ZM208.407 159.36C208.533 159.17 208.597 158.955 208.584 158.727C208.571 158.499 208.521 158.359 208.407 158.296C208.28 158.245 208.091 158.296 207.85 158.423L206.75 159.056V160.501L207.85 159.867C208.091 159.728 208.268 159.563 208.394 159.36M206.737 157.067V158.346L207.749 157.764C207.964 157.637 208.141 157.485 208.242 157.307C208.356 157.13 208.407 156.927 208.407 156.712C208.407 156.509 208.356 156.395 208.242 156.344C208.129 156.294 207.977 156.344 207.774 156.458L206.724 157.067" fill="#777777"/>
<path d="M207.002 168.129V166.913L213.467 163.174V164.391L211.228 165.696C211.379 165.823 211.519 165.962 211.62 166.14C211.734 166.317 211.809 166.532 211.86 166.798L213.479 165.861V167.077L211.885 168.002C211.797 168.864 211.519 169.662 211.076 170.385C210.633 171.094 210.051 171.728 209.355 172.311L212.176 175.707L209.634 177.177L207.04 173.489V172.273L207.901 171.779C208.242 171.576 208.546 171.348 208.799 171.094C209.064 170.828 209.279 170.524 209.457 170.195C209.634 169.878 209.76 169.536 209.823 169.193L207.028 170.815V169.599L209.811 167.99C209.76 167.736 209.646 167.533 209.507 167.407C209.368 167.267 209.191 167.204 208.963 167.217C208.748 167.217 208.483 167.305 208.166 167.483L207.028 168.142L207.002 168.129Z" fill="#2E2E2E"/>
<path d="M221.361 160.856C221.905 161.489 222.196 162.617 222.196 164.227C222.196 165.291 222.082 166.305 221.867 167.242C221.64 168.193 221.26 169.067 220.691 169.916C220.16 170.753 219.502 171.386 218.692 171.855C217.882 172.324 217.161 172.463 216.63 172.248C216.086 172.02 215.77 171.526 215.681 170.727L217.149 169.878C217.212 170.246 217.376 170.474 217.642 170.55C217.92 170.639 218.262 170.563 218.692 170.322C219.388 169.916 219.894 169.308 220.248 168.472C220.59 167.635 220.741 166.698 220.741 165.633L220.678 165.671C220.223 166.748 219.514 167.559 218.591 168.092C217.667 168.624 216.934 168.712 216.402 168.345C215.871 167.99 215.605 167.331 215.605 166.381C215.605 165.329 215.896 164.315 216.466 163.302C217.048 162.3 217.832 161.515 218.819 160.945C219.944 160.286 220.805 160.248 221.361 160.856ZM220.096 165.202C220.387 164.645 220.552 164.075 220.552 163.504C220.552 162.896 220.387 162.503 220.071 162.3C219.767 162.11 219.337 162.161 218.819 162.465C218.3 162.769 217.882 163.2 217.566 163.745C217.263 164.29 217.098 164.886 217.098 165.468C217.098 166.051 217.25 166.444 217.554 166.66C217.857 166.85 218.275 166.824 218.819 166.508C219.337 166.216 219.755 165.76 220.084 165.202" fill="#2E2E2E"/>
<path d="M228.609 160.425C229.608 160.298 230.114 160.856 230.114 162.136C230.114 163.112 229.824 164.049 229.242 164.936C228.685 165.798 227.888 166.533 226.863 167.141C225.864 167.699 225.08 167.876 224.51 167.674C223.903 167.458 223.612 166.875 223.612 165.912C223.612 164.645 224.106 163.504 225.118 162.465V162.415C224.295 162.453 223.878 161.908 223.878 160.805C223.878 159.956 224.156 159.12 224.7 158.309C225.232 157.511 225.953 156.839 226.851 156.307C227.762 155.8 228.483 155.635 229.027 155.813C229.571 156.003 229.836 156.51 229.836 157.359C229.836 158.461 229.431 159.475 228.622 160.387V160.438L228.609 160.425ZM228.154 164.417C228.445 163.948 228.596 163.454 228.596 162.909C228.596 162.402 228.445 162.085 228.166 161.92C227.875 161.806 227.433 161.908 226.851 162.225C226.294 162.567 225.864 162.96 225.586 163.416C225.282 163.91 225.13 164.404 225.13 164.911C225.13 165.456 225.282 165.773 225.586 165.899C225.877 166.039 226.307 165.937 226.851 165.646C227.407 165.304 227.837 164.911 228.141 164.43M225.763 158.803C225.497 159.209 225.371 159.64 225.371 160.096C225.371 160.552 225.51 160.818 225.788 160.919C226.054 161.033 226.395 160.983 226.838 160.717C227.281 160.451 227.648 160.108 227.913 159.69C228.179 159.272 228.306 158.829 228.306 158.398C228.306 157.967 228.192 157.65 227.926 157.549C227.673 157.435 227.306 157.536 226.838 157.802C226.37 158.068 226.016 158.398 225.775 158.791" fill="#2E2E2E"/>
<path d="M233.279 161.68V161.832L232.368 165.9L231.179 166.584V166.432L231.584 162.656L233.279 161.68Z" fill="#2E2E2E"/>
<path d="M239.97 155.787L241.147 155.103V156.649L239.97 157.333V159.411L238.478 160.273V158.195L234.354 160.577V158.866L237.972 150.021L239.945 148.881L239.97 155.787ZM238.465 156.649V151.707L238.389 151.745L235.821 158.131V158.182L238.465 156.649Z" fill="#2E2E2E"/>
<path d="M248.218 145.384C248.762 146.056 249.028 147.221 249.041 148.881C249.053 150.541 248.788 152.011 248.244 153.304C247.7 154.596 246.852 155.572 245.701 156.231C244.55 156.89 243.702 156.915 243.171 156.231C242.614 155.585 242.336 154.406 242.336 152.746C242.336 151.086 242.589 149.604 243.146 148.311C243.677 147.019 244.512 146.068 245.676 145.397C246.839 144.725 247.674 144.712 248.218 145.384ZM247.118 152.873C247.383 152.062 247.51 151.023 247.51 149.768C247.51 148.514 247.371 147.627 247.105 147.12C246.827 146.6 246.346 146.537 245.676 146.93C245.005 147.323 244.524 147.931 244.271 148.767C243.993 149.616 243.854 150.655 243.854 151.885C243.854 153.114 243.993 154.026 244.271 154.52C244.55 155.04 245.018 155.103 245.701 154.71C246.384 154.318 246.852 153.709 247.13 152.873" fill="#2E2E2E"/>
<path d="M256.428 140.645C256.972 141.316 257.237 142.482 257.25 144.142C257.263 145.802 256.997 147.272 256.453 148.565C255.909 149.857 255.062 150.833 253.91 151.492C252.759 152.151 251.912 152.176 251.38 151.492C250.824 150.846 250.545 149.667 250.545 148.007C250.545 146.347 250.798 144.865 251.355 143.572C251.886 142.28 252.721 141.329 253.885 140.658C255.049 139.986 255.884 139.973 256.428 140.645ZM255.327 148.134C255.593 147.323 255.732 146.271 255.732 145.017C255.732 143.762 255.58 142.888 255.315 142.381C255.036 141.861 254.568 141.798 253.885 142.191C253.202 142.584 252.759 143.179 252.481 144.028C252.203 144.877 252.063 145.916 252.063 147.146C252.063 148.375 252.215 149.274 252.481 149.781C252.759 150.301 253.227 150.364 253.91 149.971C254.593 149.579 255.062 148.97 255.34 148.134" fill="#2E2E2E"/>
<path d="M183.172 184.934L183.197 195.705C182.767 196.009 182.325 196.288 181.882 196.541C181.439 196.795 180.996 197.023 180.554 197.225L180.528 186.454C179.124 186.657 178.112 185.669 178.112 183.844C178.112 181.474 179.769 178.585 181.831 177.394C183.893 176.203 185.563 177.166 185.576 179.523C185.576 181.348 184.589 183.489 183.185 184.921L183.172 184.934Z" fill="white"/>
<path d="M168.902 189.168C168.889 180.931 174.658 170.895 181.793 166.777C188.927 162.646 194.746 165.978 194.772 174.202C194.772 174.43 194.772 174.671 194.759 174.912C194.759 174.988 194.759 175.026 194.759 175.077C194.759 175.165 194.759 175.216 194.759 175.254C194.759 175.355 194.759 175.393 194.759 175.444C194.759 175.546 194.759 175.596 194.746 175.634C194.746 175.736 194.746 175.786 194.734 175.824C194.734 175.926 194.721 175.976 194.721 176.014C194.721 176.128 194.708 176.166 194.696 176.204C194.696 176.319 194.683 176.357 194.67 176.395C194.658 176.509 194.658 176.547 194.645 176.585C194.632 176.699 194.62 176.737 194.62 176.775C194.607 176.876 194.595 176.927 194.595 176.965C194.582 177.066 194.569 177.117 194.569 177.155C194.544 177.345 194.519 177.497 194.493 177.662C194.481 177.763 194.468 177.801 194.455 177.839C194.43 177.966 194.43 177.991 194.417 178.029C194.202 179.03 194.19 179.068 194.19 179.106C194.164 179.233 194.152 179.271 194.139 179.309C194.114 179.436 194.101 179.474 194.089 179.512C194.063 179.639 194.051 179.677 194.038 179.715C194 179.841 194 179.879 193.987 179.917C193.949 180.031 193.937 180.082 193.924 180.133C193.873 180.31 193.836 180.45 193.798 180.576C193.772 180.652 193.76 180.716 193.734 180.779C193.709 180.868 193.684 180.918 193.671 180.982C193.633 181.083 193.62 181.134 193.608 181.185C193.57 181.286 193.557 181.337 193.545 181.387C193.507 181.489 193.494 181.539 193.481 181.59C193.443 181.691 193.431 181.742 193.418 181.793C193.38 181.894 193.367 181.945 193.342 181.996C193.304 182.097 193.292 182.148 193.266 182.198C193.228 182.3 193.216 182.35 193.19 182.401C193.152 182.502 193.127 182.553 193.114 182.604C193.077 182.692 193.051 182.756 193.039 182.819C192.849 183.301 192.646 183.77 192.444 184.226C192.406 184.302 192.381 184.365 192.355 184.416C192.318 184.492 192.292 184.555 192.267 184.606C192.229 184.682 192.204 184.745 192.178 184.796C192.14 184.872 192.115 184.935 192.077 184.999C192.039 185.075 192.014 185.138 191.976 185.202C191.938 185.278 191.913 185.341 191.875 185.404C191.508 186.127 191.116 186.824 190.711 187.52C190.673 187.584 190.635 187.647 190.597 187.711C190.104 188.522 189.572 189.307 189.003 190.055C188.965 190.118 188.915 190.169 188.877 190.232C188.826 190.296 188.788 190.346 188.75 190.41C188.7 190.473 188.662 190.524 188.624 190.574C188.573 190.638 188.535 190.688 188.485 190.739C188.08 191.246 187.662 191.74 187.232 192.209C187.182 192.26 187.131 192.31 187.093 192.361C187.042 192.424 186.992 192.462 186.954 192.513C186.891 192.577 186.853 192.615 186.815 192.665C186.751 192.729 186.714 192.779 186.676 192.817C186.612 192.881 186.574 192.931 186.536 192.969C186.473 193.045 186.423 193.083 186.385 193.121C186.321 193.185 186.271 193.235 186.233 193.273C186.17 193.337 186.119 193.388 186.081 193.426C186.018 193.489 185.967 193.54 185.929 193.578C185.714 193.78 185.512 193.97 185.309 194.148C185.246 194.199 185.208 194.237 185.158 194.275C185.082 194.338 185.044 194.376 185.006 194.401C184.917 194.477 184.892 194.503 184.854 194.528C184.765 194.604 184.74 194.629 184.702 194.655C184.614 194.731 184.576 194.756 184.55 194.781C184.462 194.857 184.424 194.883 184.399 194.908C184.297 194.984 184.272 195.01 184.247 195.035C184.146 195.111 184.12 195.136 184.095 195.162C183.994 195.238 183.968 195.263 183.943 195.276C183.842 195.352 183.817 195.377 183.791 195.39C183.538 195.58 183.513 195.592 183.475 195.618C183.298 195.745 183.273 195.757 183.247 195.783L183.222 185.011C184.626 183.58 185.626 181.438 185.613 179.613C185.613 177.244 183.93 176.293 181.869 177.484C179.807 178.675 178.149 181.565 178.149 183.934C178.149 185.759 179.161 186.747 180.566 186.545L180.591 197.316C180.591 197.316 180.54 197.341 180.502 197.354C180.325 197.43 180.3 197.443 180.275 197.455C180.022 197.569 179.984 197.582 179.958 197.582C179.857 197.62 179.832 197.633 179.807 197.645C179.705 197.683 179.68 197.696 179.655 197.709C179.554 197.747 179.528 197.759 179.503 197.772C179.402 197.81 179.376 197.823 179.351 197.823C179.263 197.861 179.225 197.861 179.199 197.873C179.111 197.899 179.073 197.911 179.048 197.924C178.959 197.949 178.921 197.962 178.896 197.975C178.807 198 178.769 198.013 178.731 198.025C178.643 198.051 178.605 198.063 178.567 198.076C178.339 198.139 178.137 198.178 177.947 198.228C177.884 198.228 177.846 198.254 177.795 198.254C177.732 198.254 177.694 198.279 177.643 198.279C177.58 198.279 177.542 198.292 177.492 198.304C177.428 198.304 177.39 198.317 177.34 198.33C177.277 198.33 177.226 198.342 177.188 198.355C177.125 198.355 177.074 198.368 177.036 198.368C176.973 198.368 176.935 198.368 176.884 198.38C176.821 198.38 176.783 198.38 176.733 198.38C176.669 198.38 176.631 198.38 176.581 198.38C176.151 198.406 175.733 198.393 175.328 198.355C175.278 198.355 175.24 198.355 175.189 198.342C175.139 198.342 175.101 198.342 175.05 198.33C174.999 198.33 174.962 198.317 174.924 198.304C174.873 198.304 174.835 198.292 174.797 198.279C173.709 198.089 172.735 197.645 171.913 196.974C171.875 196.948 171.85 196.923 171.812 196.898C171.774 196.872 171.748 196.847 171.71 196.822C171.672 196.784 171.647 196.758 171.622 196.733C171.584 196.695 171.559 196.67 171.533 196.644C171.495 196.606 171.47 196.581 171.445 196.556C171.407 196.517 171.382 196.492 171.356 196.467C171.141 196.239 170.939 196.011 170.762 195.757C170.736 195.719 170.711 195.681 170.686 195.656C170.648 195.605 170.635 195.58 170.61 195.542C170.572 195.491 170.559 195.466 170.534 195.428C170.496 195.377 170.483 195.339 170.458 195.314C170.42 195.25 170.407 195.225 170.382 195.2C170.344 195.136 170.332 195.111 170.306 195.086C170.268 195.022 170.256 194.997 170.243 194.972C170.205 194.908 170.192 194.883 170.18 194.845C170.142 194.781 170.129 194.756 170.117 194.718C170.079 194.655 170.066 194.617 170.053 194.591C169.977 194.439 169.914 194.313 169.864 194.173C169.838 194.11 169.826 194.072 169.813 194.046C169.788 193.97 169.775 193.945 169.762 193.907C169.737 193.831 169.724 193.806 169.712 193.768C169.686 193.692 169.674 193.654 169.661 193.628C169.636 193.54 169.623 193.514 169.611 193.489C169.585 193.4 169.573 193.375 169.56 193.35C169.535 193.261 169.522 193.235 169.509 193.21C169.307 192.45 169.294 192.412 169.294 192.386C169.256 192.209 169.231 192.095 169.206 191.968C169.193 191.88 169.18 191.854 169.18 191.816C169.168 191.728 169.155 191.69 169.155 191.664C169.142 191.575 169.13 191.537 169.13 191.512C169.117 191.411 169.105 191.385 169.105 191.347C169.092 191.246 169.092 191.221 169.079 191.183C169.079 191.081 169.067 191.056 169.054 191.018C169.054 190.917 169.041 190.879 169.041 190.853C169.041 190.752 169.029 190.714 169.029 190.676C169.029 190.574 169.029 190.536 169.016 190.498C169.016 190.397 169.016 190.359 169.003 190.321C169.003 190.232 169.003 190.182 169.003 190.144C169.003 190.055 169.003 190.004 169.003 189.966C169.003 189.713 168.991 189.485 168.991 189.257L168.902 189.168Z" fill="#3BC6F3"/>
<path d="M194.772 174.176C194.734 165.964 188.927 162.632 181.793 166.763C188.94 162.632 194.746 165.952 194.772 174.176Z" fill="white"/>
<path d="M184.911 84.2131L184.9 84.2019C184.827 84.2361 184.696 84.3042 184.507 84.4063C184.274 84.5318 183.957 84.7065 183.561 84.9272C182.77 85.3686 181.664 85.9936 180.29 86.7761C177.541 88.341 173.716 90.5354 169.174 93.1497C160.09 98.3782 148.139 105.286 136.196 112.194C131.261 115.049 126.327 117.904 121.598 120.641C114.882 124.528 108.578 128.176 103.266 131.247C94.235 136.468 88.0689 140.023 87.6328 140.24C85.8355 141.311 84.4054 142.956 83.3698 144.771C82.3722 146.536 81.6962 148.54 81.6706 150.566L81.7477 179.956C81.7604 181.829 82.4225 183.136 83.4727 183.748L83.4375 183.809L83.4023 183.869L83.4022 183.869C83.4017 183.869 83.4012 183.869 83.4008 183.869L79.5745 181.648L79.5743 181.648C78.4668 181.002 77.7798 179.652 77.7798 177.736M184.911 84.2131L77.8498 177.736M184.911 84.2131L184.953 84.1965C185.9 83.8272 186.983 83.703 187.905 84.104C188.034 84.1751 188.134 84.2267 188.192 84.2482L188.251 84.122C188.158 84.0683 188.063 84.0204 187.967 83.9782M184.911 84.2131L187.967 83.9782M77.7798 177.736H77.8498M77.7798 177.736L77.7798 177.736L77.8498 177.736M77.7798 177.736L77.7027 148.345L77.7027 148.343H77.7027C77.7286 146.779 78.1296 145.229 78.762 143.797L78.7622 143.796C79.678 141.759 81.0334 139.887 82.804 138.531L82.8046 138.53C83.1134 138.299 83.4245 138.078 83.7495 137.896L83.7493 137.896L83.7843 137.957C83.4632 138.137 83.1549 138.355 82.8466 138.586C81.0868 139.934 79.738 141.796 78.826 143.825C78.1966 145.25 77.7984 146.791 77.7727 148.345L77.8498 177.736M187.967 83.9782C187.96 83.9743 187.953 83.9705 187.946 83.9665C187.803 83.8874 187.624 83.7832 187.42 83.6625C187.177 83.5192 186.899 83.3531 186.608 83.1786C186.408 83.0591 186.202 82.9356 185.996 82.8128C185.49 82.511 184.983 82.2136 184.578 81.9906C184.375 81.8792 184.196 81.7859 184.055 81.7198C183.985 81.6868 183.922 81.6601 183.87 81.6414C183.824 81.6248 183.781 81.6122 183.745 81.6094C182.462 81.259 181.172 81.6927 180.064 82.311L180.063 82.3115L83.7501 137.896L187.967 83.9782Z" fill="#F2F2F2" stroke="black" stroke-width="0.139968"/>
<path d="M183.868 84.5525L183.904 84.5323C185.58 83.5685 187.117 83.4627 188.239 84.1004C189.362 84.7383 190.046 86.1059 190.046 88.0339C190.046 88.034 190.046 88.0341 190.046 88.0341L190.123 117.425L190.123 117.425C190.123 119.347 189.447 121.474 188.357 123.362C187.267 125.249 185.759 126.903 184.089 127.873L184.089 127.873L87.7753 183.458L87.7752 183.458C86.0991 184.422 84.5622 184.528 83.4396 183.892C82.3166 183.256 81.6331 181.891 81.6331 179.969M183.868 84.5525L81.703 179.969M183.868 84.5525V84.5654M183.868 84.5525L183.938 84.593V84.6058M81.6331 179.969H81.703M81.6331 179.969L81.6331 179.969L81.703 179.969M81.6331 179.969L81.556 150.578L81.556 150.578C81.556 148.65 82.232 146.519 83.322 144.632C84.4119 142.745 85.9196 141.094 87.5897 140.13L183.868 84.5654M81.703 179.969L81.626 150.578C81.626 146.752 84.3106 142.104 87.6247 140.191L183.938 84.6058M183.868 84.5654V84.593V84.6058H183.938M183.868 84.5654L183.903 84.5452L183.931 84.593L183.938 84.6058" fill="white" stroke="black" stroke-width="0.139968"/>
<path d="M101.253 150.553L101.24 148.049L109.821 143.106L109.834 145.597L101.253 150.553Z" fill="#E8CBCD"/>
<path d="M100.02 160.272L99.9812 147.612L110.951 141.281L110.99 153.942L100.02 160.272ZM101.24 148.048V150.539L109.834 145.583V143.092L101.24 148.048ZM101.24 151.746V154.07L106.571 150.989V148.665L101.24 151.746ZM101.24 155.406V157.858L103.526 156.548V154.096L101.24 155.406Z" fill="#9C1D26"/>
<path d="M101.253 154.072V151.748L106.584 148.679V151.003L101.253 154.072Z" fill="#E8CBCD"/>
<path d="M99.0061 146.842L111.928 139.382L111.967 154.225L99.0446 161.685L99.0061 146.842ZM110.991 153.955L110.952 141.295L99.9823 147.625L100.021 160.286L110.991 153.955Z" fill="#E8CBCD"/>
<path d="M101.268 157.86V155.407L103.542 154.097V156.55L101.268 157.86Z" fill="#E8CBCD"/>
<path d="M105.442 136.274C112.301 132.319 117.876 135.491 117.902 143.374C117.928 151.258 112.378 160.837 105.532 164.792C98.6725 168.746 93.1105 165.562 93.0848 157.691C93.0591 149.82 98.5954 140.229 105.455 136.274H105.442ZM111.967 154.224L111.929 139.381L99.0065 146.841L99.045 161.684L111.967 154.224Z" fill="#9C1D26"/>
<path d="M149.448 117.452V117.773L147.367 118.98C147.367 119.262 147.432 119.455 147.56 119.544C147.689 119.647 147.868 119.622 148.112 119.48C148.472 119.275 148.69 118.992 148.768 118.633L149.41 118.26C149.371 118.607 149.23 118.967 148.986 119.301C148.742 119.66 148.446 119.93 148.1 120.122C147.65 120.379 147.303 120.418 147.046 120.225C146.789 120.032 146.661 119.686 146.661 119.159C146.661 118.633 146.789 118.132 147.021 117.657C147.265 117.195 147.611 116.822 148.061 116.553C148.485 116.309 148.819 116.27 149.063 116.437C149.294 116.617 149.423 116.951 149.423 117.452H149.448ZM147.367 118.427L148.768 117.618C148.768 117.374 148.703 117.22 148.588 117.131C148.472 117.053 148.305 117.066 148.087 117.195C147.855 117.323 147.689 117.503 147.56 117.721C147.432 117.939 147.367 118.183 147.367 118.427Z" fill="#777777"/>
<path d="M144.901 119.069C144.657 119.21 144.477 119.416 144.349 119.685C144.221 119.955 144.169 120.263 144.169 120.61C144.169 120.957 144.233 121.201 144.362 121.329C144.49 121.457 144.67 121.445 144.914 121.303C145.107 121.201 145.248 121.059 145.364 120.867C145.479 120.674 145.544 120.482 145.569 120.276L146.224 119.891C146.199 120.302 146.083 120.687 145.865 121.059C145.646 121.419 145.338 121.727 144.94 121.945C144.477 122.215 144.131 122.241 143.874 122.074C143.617 121.894 143.501 121.534 143.501 120.982C143.501 120.43 143.63 119.929 143.874 119.454C144.118 118.992 144.465 118.633 144.914 118.376C145.325 118.145 145.634 118.08 145.865 118.196C146.083 118.312 146.212 118.568 146.237 118.941L145.569 119.326C145.544 119.146 145.479 119.018 145.377 118.966C145.261 118.915 145.107 118.954 144.927 119.056L144.901 119.069Z" fill="#777777"/>
<path d="M141.792 120.186C142.126 119.993 142.395 119.955 142.588 120.057C142.781 120.173 142.883 120.417 142.883 120.828V123.088L142.228 123.473V121.406C142.228 120.905 142.023 120.764 141.612 120.995C141.393 121.123 141.226 121.29 141.111 121.521C140.982 121.765 140.918 122.022 140.931 122.304V124.218L140.276 124.603V121.149L140.854 120.802L140.905 121.213H140.931C141.124 120.764 141.406 120.417 141.804 120.186H141.792Z" fill="#777777"/>
<path d="M139.122 122.059C139.341 122.162 139.456 122.393 139.456 122.74V125.038L138.878 125.372L138.827 125H138.801C138.609 125.436 138.313 125.757 137.915 125.988C137.594 126.181 137.337 126.22 137.144 126.117C136.951 126.027 136.862 125.821 136.862 125.513C136.862 125.192 136.964 124.858 137.17 124.55C137.375 124.229 137.684 123.96 138.095 123.729C138.339 123.587 138.57 123.497 138.801 123.433V123.112C138.801 122.932 138.75 122.817 138.647 122.766C138.544 122.714 138.403 122.74 138.197 122.855C138.018 122.958 137.889 123.087 137.786 123.241C137.684 123.395 137.632 123.549 137.632 123.703L137.003 124.062C137.003 123.741 137.118 123.395 137.337 123.048C137.555 122.714 137.838 122.432 138.223 122.226C138.609 122.021 138.917 121.944 139.135 122.034L139.122 122.059ZM138.801 124.127V124.011C138.596 124.05 138.377 124.139 138.146 124.268C137.941 124.383 137.786 124.512 137.697 124.653C137.594 124.807 137.542 124.961 137.542 125.115C137.542 125.269 137.594 125.359 137.684 125.398C137.774 125.436 137.902 125.398 138.082 125.295C138.3 125.167 138.48 125 138.609 124.769C138.737 124.55 138.814 124.332 138.814 124.114" fill="#777777"/>
<path d="M135.615 127.261L135.603 122.304L136.258 121.919L136.27 126.888L135.615 127.261Z" fill="#777777"/>
<path d="M133.56 124.925C133.945 124.707 134.254 124.643 134.472 124.732C134.69 124.835 134.806 125.066 134.806 125.413V127.711L134.228 128.045L134.177 127.673H134.151C133.958 128.109 133.663 128.43 133.264 128.662C132.943 128.854 132.686 128.893 132.494 128.79C132.301 128.7 132.211 128.495 132.211 128.186C132.211 127.865 132.314 127.532 132.519 127.223C132.725 126.902 133.033 126.633 133.444 126.402C133.688 126.26 133.92 126.171 134.151 126.106V125.785C134.151 125.606 134.099 125.49 133.997 125.439C133.894 125.387 133.753 125.413 133.547 125.529C133.367 125.631 133.239 125.76 133.136 125.914C133.033 126.068 132.982 126.222 132.982 126.376L132.352 126.735C132.352 126.414 132.468 126.068 132.686 125.721C132.905 125.387 133.187 125.105 133.573 124.899L133.56 124.925ZM134.151 126.8V126.684C133.945 126.723 133.727 126.813 133.496 126.941C133.29 127.056 133.149 127.185 133.046 127.326C132.943 127.48 132.892 127.634 132.892 127.788C132.892 127.942 132.943 128.032 133.033 128.071C133.123 128.109 133.252 128.071 133.431 127.968C133.65 127.84 133.83 127.673 133.958 127.442C134.087 127.223 134.164 127.005 134.164 126.787" fill="#777777"/>
<path d="M131.118 127.364C131.529 127.325 131.734 127.582 131.734 128.134C131.734 128.558 131.619 128.956 131.388 129.328C131.156 129.701 130.835 130.009 130.437 130.24L128.6 131.293V126.594L130.36 125.566C130.72 125.361 131.015 125.297 131.233 125.387C131.452 125.476 131.567 125.708 131.567 126.093C131.567 126.542 131.413 126.94 131.105 127.325V127.351L131.118 127.364ZM130.861 129.123C130.976 128.93 131.041 128.738 131.041 128.507C131.041 128.276 130.989 128.16 130.861 128.096C130.732 128.044 130.565 128.096 130.334 128.224L129.281 128.828V130.202L130.334 129.598C130.565 129.47 130.732 129.303 130.848 129.11M129.268 126.915V128.147L130.231 127.595C130.45 127.467 130.604 127.325 130.72 127.146C130.822 126.979 130.874 126.786 130.874 126.581C130.874 126.401 130.822 126.285 130.72 126.234C130.617 126.183 130.463 126.234 130.27 126.337L129.268 126.915Z" fill="#777777"/>
<path d="M178.878 109.401C179.469 110.094 179.777 111.301 179.777 113.022C179.777 114.742 179.482 116.309 178.904 117.683C178.313 119.056 177.401 120.084 176.155 120.803C174.909 121.522 173.997 121.535 173.406 120.841C172.802 120.161 172.507 118.941 172.507 117.207C172.507 115.474 172.789 113.933 173.38 112.559C173.958 111.198 174.87 110.171 176.116 109.452C177.362 108.733 178.274 108.707 178.865 109.388L178.878 109.401ZM177.516 117.195C177.773 116.399 177.902 115.384 177.902 114.113C177.902 112.842 177.761 111.994 177.504 111.494C177.247 111.019 176.784 110.967 176.142 111.339C175.5 111.712 175.05 112.277 174.793 113.06C174.536 113.856 174.408 114.896 174.408 116.129C174.408 117.362 174.549 118.273 174.806 118.748C175.063 119.249 175.513 119.3 176.168 118.928C176.823 118.556 177.272 117.978 177.529 117.182" fill="#2E2E2E"/>
<path d="M167.524 114.433C168.77 113.714 169.682 113.689 170.273 114.369C170.863 115.063 171.172 116.27 171.172 117.99C171.172 119.711 170.876 121.277 170.298 122.651C169.707 124.025 168.795 125.052 167.549 125.771C166.303 126.49 165.391 126.503 164.801 125.81C164.197 125.129 163.901 123.909 163.901 122.176C163.901 120.443 164.184 118.902 164.775 117.528C165.353 116.167 166.265 115.14 167.511 114.421L167.524 114.433ZM168.911 122.163C169.168 121.367 169.296 120.353 169.296 119.082C169.296 117.81 169.155 116.963 168.898 116.462C168.641 115.987 168.192 115.936 167.537 116.308C166.881 116.68 166.445 117.245 166.188 118.029C165.931 118.825 165.802 119.865 165.802 121.097C165.802 122.33 165.944 123.242 166.201 123.717C166.458 124.218 166.907 124.269 167.562 123.897C168.217 123.524 168.667 122.946 168.924 122.15" fill="#2E2E2E"/>
<path d="M159.443 123.01C160.407 122.458 161.178 122.343 161.756 122.677C162.347 123.01 162.642 123.704 162.642 124.77C162.642 125.912 162.334 127.017 161.73 128.069C161.113 129.135 160.266 129.983 159.174 130.612C158.185 131.19 157.363 131.331 156.707 131.061C156.052 130.779 155.731 130.162 155.731 129.225L157.581 128.159C157.607 128.557 157.761 128.827 158.031 128.955C158.3 129.097 158.673 129.032 159.174 128.75C159.713 128.442 160.111 128.018 160.394 127.466C160.651 126.927 160.792 126.387 160.779 125.848C160.779 125.334 160.651 124.962 160.381 124.757C160.099 124.564 159.7 124.615 159.161 124.924C158.557 125.27 158.069 125.835 157.671 126.631L155.885 127.659L156.232 121.123L161.987 117.797V119.685L157.761 122.124L157.594 124.731L157.645 124.705C158.095 123.986 158.698 123.421 159.456 122.985L159.443 123.01Z" fill="#2E2E2E"/>
<path d="M152.145 136.595L152.556 132.564L154.599 131.382V131.524L153.558 135.941L152.145 136.749V136.595Z" fill="#2E2E2E"/>
<path d="M147.137 135.453V135.517L151.234 133.154V135.055L144.67 138.843V137.135L147.817 131.588C148.318 130.715 148.678 130.034 148.896 129.546C149.089 129.084 149.179 128.66 149.179 128.262C149.179 127.864 149.063 127.582 148.832 127.466C148.601 127.351 148.28 127.415 147.856 127.659C147.432 127.903 147.06 128.262 146.816 128.686C146.559 129.148 146.417 129.662 146.417 130.227L144.632 131.254C144.632 130.124 144.914 129.084 145.492 128.108C146.071 127.132 146.867 126.362 147.856 125.784C148.845 125.206 149.59 125.078 150.181 125.322C150.772 125.579 151.054 126.169 151.067 127.107C151.067 127.659 150.952 128.275 150.682 128.943C150.425 129.61 150.001 130.458 149.423 131.498L147.137 135.453Z" fill="#2E2E2E"/>
<path d="M139.341 139.948V140.012L143.439 137.649V139.55L136.875 143.337V141.63L140.022 136.083C140.523 135.21 140.883 134.529 141.101 134.041C141.294 133.579 141.384 133.155 141.384 132.757C141.384 132.359 141.268 132.077 141.037 131.961C140.806 131.846 140.484 131.91 140.061 132.154C139.637 132.398 139.264 132.757 139.02 133.181C138.75 133.643 138.622 134.157 138.622 134.722L136.836 135.749C136.836 134.619 137.119 133.579 137.697 132.603C138.275 131.627 139.072 130.857 140.061 130.279C141.05 129.701 141.795 129.573 142.386 129.817C142.976 130.074 143.259 130.664 143.272 131.602C143.272 132.154 143.143 132.783 142.887 133.438C142.63 134.105 142.206 134.953 141.628 135.993L139.341 139.948Z" fill="#2E2E2E"/>
<path d="M129.268 137.648V136.48L135.447 132.91V134.079L133.301 135.324C133.456 135.44 133.584 135.581 133.687 135.748C133.802 135.915 133.867 136.12 133.905 136.377L135.447 135.478V136.647L133.918 137.533C133.828 138.354 133.571 139.125 133.147 139.805C132.723 140.486 132.158 141.102 131.49 141.641L134.188 144.903L131.747 146.302L129.268 142.784V141.616L130.09 141.141C130.411 140.948 130.707 140.743 130.951 140.499C131.208 140.229 131.413 139.947 131.58 139.651C131.747 139.33 131.876 139.022 131.927 138.688L129.255 140.229V139.061L131.914 137.533C131.863 137.289 131.76 137.109 131.632 136.968C131.503 136.826 131.323 136.775 131.105 136.788C130.886 136.788 130.642 136.865 130.334 137.045L129.255 137.674L129.268 137.648Z" fill="#2E2E2E"/>
<path d="M128.908 57.5519C128.908 57.5518 128.908 57.5517 128.908 57.5516L128.976 57.5404L128.908 57.5519ZM128.908 57.5519C128.908 57.5521 128.908 57.5522 128.908 57.5523C128.908 57.5524 128.909 57.5525 128.909 57.5525C128.909 57.5525 128.908 57.5524 128.908 57.5523L128.908 57.5519ZM131.048 76.8974C130.726 74.7988 130.429 73.1746 130.03 71.9295C129.63 70.6812 129.127 69.8063 128.389 69.2154C127.651 68.6245 126.687 68.3246 125.382 68.2077C124.08 68.091 122.43 68.1557 120.312 68.3006C122.41 67.9789 124.035 67.6812 125.28 67.2827C126.528 66.8832 127.403 66.3799 127.994 65.6419C128.585 64.9039 128.885 63.9402 129.001 62.6347C129.118 61.3326 129.053 59.6826 128.909 57.5644C129.23 59.6631 129.528 61.2873 129.926 62.5323C130.326 63.7807 130.829 64.6555 131.567 65.2465C132.305 65.8374 133.269 66.1372 134.574 66.2542C135.877 66.3708 137.527 66.3062 139.645 66.1612C137.546 66.4829 135.922 66.7806 134.677 67.1791C133.428 67.5787 132.554 68.082 131.963 68.82C131.372 69.5579 131.072 70.5217 130.955 71.8272C130.838 73.1292 130.903 74.7792 131.048 76.8974Z" fill="white" stroke="black" stroke-width="0.139968"/>
<path d="M258.238 106.821C258.238 106.821 258.238 106.821 258.238 106.821L258.306 106.809L258.238 106.821ZM258.238 106.821C258.238 106.821 258.238 106.821 258.238 106.821C258.238 106.821 258.238 106.822 258.238 106.822C258.238 106.822 258.238 106.821 258.238 106.821L258.238 106.821ZM260.378 126.166C260.056 124.068 259.758 122.444 259.36 121.199C258.96 119.95 258.457 119.075 257.719 118.484C256.981 117.894 256.017 117.594 254.712 117.477C253.41 117.36 251.76 117.425 249.642 117.57C251.74 117.248 253.364 116.95 254.609 116.552C255.858 116.152 256.733 115.649 257.324 114.911C257.915 114.173 258.214 113.209 258.331 111.904C258.448 110.602 258.383 108.952 258.238 106.833C258.56 108.932 258.858 110.556 259.256 111.801C259.656 113.05 260.159 113.925 260.897 114.515C261.635 115.106 262.599 115.406 263.904 115.523C265.206 115.64 266.856 115.575 268.975 115.43C266.876 115.752 265.252 116.05 264.007 116.448C262.758 116.848 261.883 117.351 261.293 118.089C260.702 118.827 260.402 119.791 260.285 121.096C260.168 122.398 260.233 124.048 260.378 126.166Z" fill="white" stroke="black" stroke-width="0.139968"/>
<path d="M173.229 301.42C174.974 293.277 175.882 292.635 184.142 293.694C184.228 293.704 184.25 293.575 184.165 293.56C176.022 291.815 175.38 290.907 176.439 282.647L173.229 301.42ZM173.229 301.42C173.215 301.505 173.085 301.483 173.095 301.397L173.229 301.42Z" fill="white" stroke="black" stroke-width="0.139968"/>
</g>
<defs>
<clipPath id="clip0_71_288">
<rect width="342.082" height="353" fill="white" transform="translate(0.458984 0.984375)"/>
</clipPath>
</defs>
</svg>
