<svg width="59" height="59" viewBox="0 0 59 59" fill="none" xmlns="http://www.w3.org/2000/svg">
<path d="M39.3745 45.7906C40.5359 50.125 37.9637 54.5802 33.6293 55.7416C29.2949 56.903 24.8396 54.3308 23.6782 49.9964M2.57075 28.4533C1.51587 24.6665 2.61286 20.5725 5.41979 17.8205M29.8964 12.5487C30.7203 11.0664 30.9917 9.27485 30.5181 7.5074C29.5503 3.89539 25.8376 1.75186 22.2256 2.7197C18.6136 3.68753 16.47 7.40023 17.4379 11.0122C17.9115 12.7797 19.0423 14.1955 20.4969 15.0673M52.0308 15.2005C51.051 11.3937 48.054 8.39666 44.2471 7.41684M44.3706 22.5815C43.4039 18.9737 40.8231 15.9567 37.1959 14.1943C33.5687 12.4319 29.1922 12.0684 25.0293 13.1839C20.8664 14.2993 17.258 16.8023 14.9979 20.1422C12.7379 23.4821 12.0113 27.3853 12.978 30.9931C14.5775 36.9624 14.2669 41.7247 13.2568 45.3435C12.1056 49.4678 11.53 51.53 11.6855 51.9441C11.8634 52.4179 11.9921 52.5479 12.464 52.7308C12.8765 52.8906 14.6092 52.4263 18.0746 51.4977L50.2092 42.8873C53.6746 41.9587 55.4073 41.4945 55.6846 41.1498C56.0018 40.7556 56.0483 40.5786 55.9655 40.0794C55.8931 39.643 54.3635 38.1449 51.3043 35.1487C48.6202 32.5198 45.9701 28.5508 44.3706 22.5815Z" stroke="#017AFF" stroke-width="4" stroke-linecap="round" stroke-linejoin="round"/>
</svg>
