<svg width="100" height="100" viewBox="0 0 100 100" fill="none" xmlns="http://www.w3.org/2000/svg">
<rect width="100" height="100" fill="white"/>
<path d="M32.5 50C31.837 50 31.2011 50.2634 30.7322 50.7322C30.2634 51.2011 30 51.837 30 52.5V72.5C30 73.163 30.2634 73.7989 30.7322 74.2678C31.2011 74.7366 31.837 75 32.5 75C33.163 75 33.7989 74.7366 34.2678 74.2678C34.7366 73.7989 35 73.163 35 72.5V52.5C35 51.837 34.7366 51.2011 34.2678 50.7322C33.7989 50.2634 33.163 50 32.5 50ZM45 25C44.337 25 43.7011 25.2634 43.2322 25.7322C42.7634 26.2011 42.5 26.837 42.5 27.5V72.5C42.5 73.163 42.7634 73.7989 43.2322 74.2678C43.7011 74.7366 44.337 75 45 75C45.663 75 46.2989 74.7366 46.7678 74.2678C47.2366 73.7989 47.5 73.163 47.5 72.5V27.5C47.5 26.837 47.2366 26.2011 46.7678 25.7322C46.2989 25.2634 45.663 25 45 25V25ZM70 60C69.337 60 68.7011 60.2634 68.2322 60.7322C67.7634 61.2011 67.5 61.837 67.5 62.5V72.5C67.5 73.163 67.7634 73.7989 68.2322 74.2678C68.7011 74.7366 69.337 75 70 75C70.663 75 71.2989 74.7366 71.7678 74.2678C72.2366 73.7989 72.5 73.163 72.5 72.5V62.5C72.5 61.837 72.2366 61.2011 71.7678 60.7322C71.2989 60.2634 70.663 60 70 60ZM57.5 40C56.837 40 56.2011 40.2634 55.7322 40.7322C55.2634 41.2011 55 41.837 55 42.5V72.5C55 73.163 55.2634 73.7989 55.7322 74.2678C56.2011 74.7366 56.837 75 57.5 75C58.163 75 58.7989 74.7366 59.2678 74.2678C59.7366 73.7989 60 73.163 60 72.5V42.5C60 41.837 59.7366 41.2011 59.2678 40.7322C58.7989 40.2634 58.163 40 57.5 40Z" fill="#2B2B2B"/>
</svg>
