<svg width="100" height="100" viewBox="0 0 100 100" fill="none" xmlns="http://www.w3.org/2000/svg">
<rect width="100" height="100" fill="white"/>
<path d="M52.4998 60H37.4998C36.8368 60 36.2009 60.2634 35.7321 60.7323C35.2632 61.2011 34.9998 61.837 34.9998 62.5C34.9998 63.1631 35.2632 63.799 35.7321 64.2678C36.2009 64.7367 36.8368 65 37.4998 65H52.4998C53.1629 65 53.7988 64.7367 54.2676 64.2678C54.7364 63.799 54.9998 63.1631 54.9998 62.5C54.9998 61.837 54.7364 61.2011 54.2676 60.7323C53.7988 60.2634 53.1629 60 52.4998 60ZM42.4998 45H47.4998C48.1629 45 48.7988 44.7367 49.2676 44.2678C49.7364 43.799 49.9998 43.1631 49.9998 42.5C49.9998 41.837 49.7364 41.2011 49.2676 40.7323C48.7988 40.2634 48.1629 40 47.4998 40H42.4998C41.8368 40 41.2009 40.2634 40.7321 40.7323C40.2632 41.2011 39.9998 41.837 39.9998 42.5C39.9998 43.1631 40.2632 43.799 40.7321 44.2678C41.2009 44.7367 41.8368 45 42.4998 45V45ZM72.4998 50H64.9998V27.5C65.0016 27.0595 64.8869 26.6264 64.6674 26.2444C64.4479 25.8625 64.1313 25.5453 63.7498 25.325C63.3698 25.1056 62.9387 24.9901 62.4998 24.9901C62.061 24.9901 61.6299 25.1056 61.2498 25.325L53.7498 29.625L46.2498 25.325C45.8698 25.1056 45.4387 24.9901 44.9998 24.9901C44.561 24.9901 44.1299 25.1056 43.7498 25.325L36.2498 29.625L28.7498 25.325C28.3698 25.1056 27.9387 24.9901 27.4998 24.9901C27.061 24.9901 26.6299 25.1056 26.2498 25.325C25.8683 25.5453 25.5518 25.8625 25.3323 26.2444C25.1128 26.6264 24.9981 27.0595 24.9998 27.5V67.5C24.9998 69.4892 25.79 71.3968 27.1965 72.8034C28.6031 74.2099 30.5107 75 32.4998 75H67.4998C69.489 75 71.3966 74.2099 72.8031 72.8034C74.2097 71.3968 74.9998 69.4892 74.9998 67.5V52.5C74.9998 51.837 74.7364 51.2011 74.2676 50.7323C73.7988 50.2634 73.1629 50 72.4998 50ZM32.4998 70C31.8368 70 31.2009 69.7367 30.7321 69.2678C30.2632 68.799 29.9998 68.1631 29.9998 67.5V31.825L34.9998 34.675C35.3857 34.8766 35.8145 34.9818 36.2498 34.9818C36.6851 34.9818 37.114 34.8766 37.4998 34.675L44.9998 30.375L52.4998 34.675C52.8857 34.8766 53.3145 34.9818 53.7498 34.9818C54.1851 34.9818 54.614 34.8766 54.9998 34.675L59.9998 31.825V67.5C60.0066 68.3529 60.1588 69.1984 60.4498 70H32.4998ZM69.9998 67.5C69.9998 68.1631 69.7364 68.799 69.2676 69.2678C68.7988 69.7367 68.1629 70 67.4998 70C66.8368 70 66.2009 69.7367 65.7321 69.2678C65.2632 68.799 64.9998 68.1631 64.9998 67.5V55H69.9998V67.5ZM52.4998 50H37.4998C36.8368 50 36.2009 50.2634 35.7321 50.7323C35.2632 51.2011 34.9998 51.837 34.9998 52.5C34.9998 53.1631 35.2632 53.799 35.7321 54.2678C36.2009 54.7367 36.8368 55 37.4998 55H52.4998C53.1629 55 53.7988 54.7367 54.2676 54.2678C54.7364 53.799 54.9998 53.1631 54.9998 52.5C54.9998 51.837 54.7364 51.2011 54.2676 50.7323C53.7988 50.2634 53.1629 50 52.4998 50Z" fill="#2B2B2B"/>
</svg>
