<svg width="28" height="28" viewBox="0 0 28 28" fill="none" xmlns="http://www.w3.org/2000/svg">
<path d="M2.02461 20.8646L2.02442 20.8537L2.01489 20.309L6.25111 20.2861L6.28993 20.2859L6.32377 20.2669L12.5157 16.7881L2.02461 20.8646ZM2.02461 20.8646L2.02323 20.8755C1.96966 21.2929 2.16239 21.7429 2.58245 21.9846C2.58263 21.9847 2.58282 21.9848 2.583 21.9849L12.4304 27.5289C13.1892 27.9545 14.1092 27.9548 14.8687 27.5403C14.8688 27.5402 14.869 27.5401 14.8692 27.54L24.8632 21.9838L24.8631 21.9838L24.8666 21.982C25.3044 21.7531 25.4884 21.3063 25.445 20.8836L25.4281 20.7182H25.4564M2.02461 20.8646L25.4564 20.7182M25.4564 20.7182V20.18L21.0851 20.203L21.0454 20.2032L21.0109 20.1838L14.9652 16.7881C14.2063 16.3625 13.2747 16.3624 12.5158 16.788L25.4564 20.7182Z" fill="#017AFF" stroke="#283964" stroke-width="0.3"/>
<path d="M2.59324 18.6389L2.59401 18.6384L12.5157 13.0581C13.2746 12.6325 14.2063 12.6325 14.9652 13.0581L24.8741 18.6381C24.8742 18.6382 24.8743 18.6382 24.8744 18.6383C25.6531 19.081 25.647 20.1674 24.8768 20.5842L24.8753 20.585L24.8754 20.585L14.8814 26.1412C14.8812 26.1413 14.881 26.1414 14.8809 26.1415C14.1214 26.556 13.2015 26.5557 12.4428 26.1303L2.59324 18.6389ZM2.59324 18.6389C1.81861 19.0686 1.81861 20.1553 2.59324 20.585L2.59406 20.5854L12.4426 26.1301L2.59324 18.6389Z" fill="#017AFF" stroke="#283964" stroke-width="0.3"/>
<path d="M24.9482 18.5077L15.0386 12.9273C14.2341 12.4761 13.2468 12.4761 12.4423 12.9273L2.52048 18.5077C1.64287 18.9945 1.64287 20.2293 2.52048 20.7161L12.3692 26.261C13.1737 26.7121 14.1488 26.7121 14.9533 26.2728L24.9482 20.7161C25.8258 20.2412 25.8258 19.0064 24.9482 18.5077Z" fill="#98C9FF" stroke="#283964" stroke-width="0.3" stroke-miterlimit="10"/>
<path d="M24.1709 11.812L22.1766 12.9776V20.7482L24.1709 19.6512V11.812Z" fill="#E8F4FD" stroke="#283964" stroke-width="0.3"/>
<path d="M20.9802 12.2007L22.1768 12.9777V20.7483L20.9802 19.9713V12.2007Z" fill="#017AFF" stroke="#283964" stroke-width="0.3"/>
<path d="M14.5981 7.14941L12.6038 8.315V16.0856L14.5981 14.9886V7.14941Z" fill="#E8F4FD" stroke="#283964" stroke-width="0.3"/>
<path d="M11.4079 7.53809L12.6045 8.31515V16.0857L11.4079 15.3087V7.53809Z" fill="#017AFF" stroke="#283964" stroke-width="0.3"/>
<path d="M20.6606 13.7549L18.6663 14.9205V22.6911L20.6606 21.5941V13.7549Z" fill="#E8F4FD" stroke="#283964" stroke-width="0.3"/>
<path d="M17.4704 14.1436L18.667 14.9206V22.6912L17.4704 21.9141V14.1436Z" fill="#017AFF" stroke="#283964" stroke-width="0.3"/>
<path d="M11.0879 9.09277L9.09359 10.2584V18.029L11.0879 16.932V9.09277Z" fill="#E8F4FD" stroke="#283964" stroke-width="0.3"/>
<path d="M7.89717 9.48145L9.09375 10.2585V18.0291L7.89717 17.252V9.48145Z" fill="#017AFF" stroke="#283964" stroke-width="0.3"/>
<path d="M16.9917 15.3848L14.9974 16.5504V24.3209L16.9917 23.224V15.3848Z" fill="#E8F4FD" stroke="#283964" stroke-width="0.3"/>
<path d="M13.801 15.7734L14.9976 16.5505V24.3211L13.801 23.544V15.7734Z" fill="#017AFF" stroke="#283964" stroke-width="0.3"/>
<path d="M3.74951 11.6553L5.74381 12.8209V20.5915L3.74951 19.4945V11.6553Z" fill="#E8F4FD" stroke="#283964" stroke-width="0.3"/>
<path d="M6.94023 12.0439L5.74365 12.821V20.5916L6.94023 19.8145V12.0439Z" fill="#017AFF" stroke="#283964" stroke-width="0.3"/>
<path d="M6.62109 13.0547L8.6154 14.2203V21.9909L6.62109 20.8939V13.0547Z" fill="#E8F4FD" stroke="#283964" stroke-width="0.3"/>
<path d="M9.81182 13.4429L8.61523 14.2199V21.9905L9.81182 21.2135V13.4429Z" fill="#017AFF" stroke="#283964" stroke-width="0.3"/>
<path d="M9.49316 14.9204L11.4875 16.086V23.8566L9.49316 22.7596V14.9204Z" fill="#E8F4FD" stroke="#283964" stroke-width="0.3"/>
<path d="M12.6834 15.3091L11.4868 16.0861V23.8567L12.6834 23.0797V15.3091Z" fill="#017AFF" stroke="#283964" stroke-width="0.3"/>
<path d="M2.02461 11.0741L2.02442 11.0632L2.01489 10.5185L6.25111 10.4956L6.28993 10.4954L6.32377 10.4764L12.5157 6.99754L2.02461 11.0741ZM2.02461 11.0741L2.02323 11.0849C1.96966 11.5023 2.16239 11.9524 2.58245 12.194C2.58263 12.1941 2.58282 12.1942 2.583 12.1943L12.4304 17.7384C13.1892 18.164 14.1092 18.1643 14.8687 17.7497C14.8688 17.7497 14.869 17.7496 14.8692 17.7495L24.8632 12.1933L24.8631 12.1933L24.8666 12.1915C25.3044 11.9626 25.4884 11.5157 25.445 11.093L25.4281 10.9277H25.4564M2.02461 11.0741L25.4564 10.9277M25.4564 10.9277V10.3895L21.0851 10.4125L21.0454 10.4127L21.0109 10.3933L14.9652 6.99754C14.2063 6.57193 13.2747 6.57191 12.5158 6.99748L25.4564 10.9277Z" fill="#017AFF" stroke="#283964" stroke-width="0.3"/>
<path d="M2.59324 8.84786L2.59401 8.84743L12.5157 3.26707C13.2746 2.84145 14.2063 2.84145 14.9652 3.26707L24.8741 8.8471C24.8742 8.84715 24.8743 8.84721 24.8744 8.84726C25.6531 9.28997 25.647 10.3764 24.8768 10.7932L24.8753 10.794L24.8754 10.794L14.8814 16.3502C14.8812 16.3503 14.881 16.3504 14.8809 16.3504C14.1214 16.7649 13.2015 16.7647 12.4428 16.3392L2.59324 8.84786ZM2.59324 8.84786C1.81861 9.27753 1.81861 10.3643 2.59324 10.7939L2.59406 10.7944L12.4426 16.3391L2.59324 8.84786Z" fill="#017AFF" stroke="#283964" stroke-width="0.3"/>
<path d="M24.9482 8.71668L15.0386 3.13624C14.2341 2.68506 13.2468 2.68506 12.4423 3.13624L2.52048 8.71668C1.64287 9.20349 1.64287 10.4383 2.52048 10.9251L12.3692 16.4699C13.1737 16.9211 14.1488 16.9211 14.9533 16.4818L24.9482 10.9251C25.8258 10.4502 25.8258 9.21536 24.9482 8.71668Z" fill="#98C9FF" stroke="#283964" stroke-width="0.3" stroke-miterlimit="10"/>
<path d="M18.1419 7.23278L16.1578 16.0677C15.7303 17.9714 13.6279 18.9669 11.8842 18.0912L3.08265 13.6704C1.45415 12.8525 0.925081 10.7834 1.96104 9.28416L6.92479 2.10046C7.76139 0.889704 9.35271 0.464575 10.6817 1.09679L16.5035 3.86638C17.7687 4.46827 18.4489 5.86575 18.1419 7.23278Z" fill="#98C9FF" stroke="#283964" stroke-width="0.3"/>
<path d="M26.4879 11.331L14.0654 18.2458C13.2069 18.7236 12.2461 17.8065 12.6836 16.9268L18.185 5.8632C18.4447 5.34098 19.0943 5.15088 19.5945 5.45074L26.5157 9.59958C27.1757 9.9952 27.1602 10.9568 26.4879 11.331Z" fill="#E8F4FD" stroke="#283964" stroke-width="0.3"/>
</svg>
