<svg width="100" height="100" viewBox="0 0 100 100" fill="none" xmlns="http://www.w3.org/2000/svg">
<rect width="100" height="100" fill="white"/>
<path d="M69.075 29.1251C68.7846 28.8902 68.4452 28.7233 68.0818 28.6368C67.7183 28.5502 67.3402 28.5462 66.975 28.6251C64.3036 29.185 61.5459 29.1921 58.8716 28.6461C56.1973 28.1 53.6631 27.0124 51.425 25.4501C51.0065 25.1598 50.5093 25.0042 50 25.0042C49.4907 25.0042 48.9935 25.1598 48.575 25.4501C46.3369 27.0124 43.8027 28.1 41.1284 28.6461C38.4542 29.1921 35.6964 29.185 33.025 28.6251C32.6599 28.5462 32.2817 28.5502 31.9183 28.6368C31.5549 28.7233 31.2155 28.8902 30.925 29.1251C30.635 29.3604 30.4013 29.6577 30.2412 29.9951C30.0812 30.3326 29.9987 30.7016 30 31.0751V49.7001C29.9978 53.2845 30.8519 56.8175 32.4914 60.005C34.1308 63.1925 36.508 65.9422 39.425 68.0251L48.55 74.5251C48.9734 74.8266 49.4803 74.9886 50 74.9886C50.5198 74.9886 51.0266 74.8266 51.45 74.5251L60.575 68.0251C63.4921 65.9422 65.8693 63.1925 67.5087 60.005C69.1481 56.8175 70.0022 53.2845 70 49.7001V31.0751C70.0013 30.7016 69.9189 30.3326 69.7588 29.9951C69.5987 29.6577 69.3651 29.3604 69.075 29.1251ZM65 49.7001C65.0019 52.487 64.3382 55.234 63.0641 57.7126C61.7901 60.1912 59.9424 62.3297 57.675 63.9501L50 69.4251L42.325 63.9501C40.0576 62.3297 38.21 60.1912 36.9359 57.7126C35.6618 55.234 34.9981 52.487 35 49.7001V33.9501C40.2411 34.3987 45.4901 33.1827 50 30.4751C54.5099 33.1827 59.7589 34.3987 65 33.9501V49.7001Z" fill="#2B2B2B"/>
</svg>
