<svg width="337" height="398" viewBox="0 0 337 398" fill="none" xmlns="http://www.w3.org/2000/svg">
<g clip-path="url(#clip0_71_1791)">
<path d="M168.503 296.101C247.975 296.101 312.4 231.586 312.4 152.003C312.4 72.4203 247.975 7.90552 168.503 7.90552C89.0308 7.90552 24.6058 72.4203 24.6058 152.003C24.6058 231.586 89.0308 296.101 168.503 296.101Z" stroke="black" stroke-miterlimit="10"/>
<path d="M326.5 147.376H298.295" stroke="black" stroke-miterlimit="10"/>
<path d="M282.206 63.5615C288.503 58.9715 293.613 55.2578 293.613 55.2578C293.613 55.2578 288.509 58.9776 282.206 63.5615ZM282.206 63.5615C275.903 68.1454 270.799 71.8651 270.799 71.8651C270.799 71.8651 275.909 68.1515 282.206 63.5615Z" stroke="black" stroke-miterlimit="10"/>
<path d="M208.581 13.525C210.986 6.10377 212.938 0.092041 212.938 0.092041C212.938 0.092041 210.986 6.1099 208.581 13.525ZM208.581 13.525L204.223 26.9579" stroke="black" stroke-miterlimit="10"/>
<path d="M119.644 16.3868C117.239 8.96559 115.287 2.95386 115.287 2.95386C115.287 2.95386 117.239 8.97172 119.644 16.3868ZM119.644 16.3868C122.049 23.8019 124.001 29.8197 124.001 29.8197C124.001 29.8197 122.049 23.808 119.644 16.3868Z" stroke="black" stroke-miterlimit="10"/>
<path d="M49.372 71.0439C43.0749 66.4539 37.965 62.7402 37.965 62.7402C37.965 62.7402 43.0687 66.46 49.372 71.0439ZM49.372 71.0439C55.6752 75.6278 60.779 79.3476 60.779 79.3476C60.779 79.3476 55.6691 75.6339 49.372 71.0439Z" stroke="black" stroke-miterlimit="10"/>
<path d="M10.5 156.624C10.5 156.624 16.8155 156.624 24.6058 156.624C32.3961 156.624 38.7116 156.624 38.7116 156.624" stroke="black" stroke-miterlimit="10"/>
<path d="M54.794 240.439C48.4969 245.029 43.387 248.742 43.387 248.742C43.387 248.742 48.4907 245.023 54.794 240.439ZM54.794 240.439C61.0972 235.855 66.201 232.135 66.201 232.135C66.201 232.135 61.0911 235.849 54.794 240.439Z" stroke="black" stroke-miterlimit="10"/>
<path d="M128.426 290.475C126.02 297.896 124.068 303.908 124.068 303.908C124.068 303.908 126.02 297.89 128.426 290.475ZM128.426 290.475L132.783 277.042" stroke="black" stroke-miterlimit="10"/>
<path d="M217.362 287.619C219.767 295.041 221.719 301.052 221.719 301.052C221.719 301.052 219.767 295.035 217.362 287.619ZM217.362 287.619C214.957 280.204 213.005 274.187 213.005 274.187C213.005 274.187 214.957 280.198 217.362 287.619Z" stroke="black" stroke-miterlimit="10"/>
<path d="M287.634 232.956C293.931 237.546 299.041 241.26 299.041 241.26C299.041 241.26 293.937 237.54 287.634 232.956ZM287.634 232.956C281.331 228.372 276.227 224.653 276.227 224.653C276.227 224.653 281.337 228.366 287.634 232.956Z" stroke="black" stroke-miterlimit="10"/>
<path d="M91.2915 262.304V269.964L89.5229 40.501V32.8408L91.2915 262.304Z" fill="#1B2C7B"/>
<path d="M246.431 262.5C246.571 270.301 241.982 277.912 234.956 281.32C232.172 282.698 229.075 283.397 225.967 283.403L112.08 283.262C100.697 283.25 91.3833 273.862 91.2915 262.31V269.97C91.3772 281.522 100.691 290.91 112.08 290.922L225.967 291.063C229.773 291.063 233.561 289.991 236.78 287.956C241.865 284.782 245.39 279.297 246.216 273.353C246.596 271.116 246.376 264.829 246.431 262.5Z" fill="#0157B5" stroke="black" stroke-width="0.5" stroke-linecap="round" stroke-linejoin="round"/>
<path d="M109.987 11.9378L223.874 12.0787C235.268 12.091 244.564 21.4671 244.662 33.0309L246.431 262.494C246.516 274.046 237.367 283.409 225.967 283.397L112.08 283.256C100.697 283.244 91.3833 273.856 91.2915 262.304L89.523 32.8409C89.4373 21.271 98.5984 11.9255 109.987 11.9378Z" fill="#3250E2" stroke="black" stroke-width="0.5" stroke-miterlimit="10"/>
<path d="M221.97 16.2581C232.729 16.2581 241.412 24.8865 241.437 35.5496L241.939 260.833C241.963 271.527 233.279 280.223 222.558 280.253L114.197 280.59C103.427 280.59 94.7369 271.962 94.7185 261.287L94.2167 36.003C94.1922 25.3155 102.876 16.6258 113.61 16.589L221.97 16.252V16.2581Z" fill="#282828"/>
<path d="M208.519 16.6319V18.3294C208.538 24.0469 204.272 28.6982 199.003 28.7105L136.693 28.8821C131.418 28.8943 127.14 24.2737 127.122 18.55V16.8525L208.519 16.6257V16.6319Z" fill="black"/>
<path d="M129.6 183.643V178.44C129.6 177.729 129.882 177.104 130.445 176.583C131.002 176.062 131.675 175.799 132.434 175.799H203.715C204.48 175.799 205.147 176.062 205.704 176.583C206.267 177.104 206.549 177.729 206.549 178.44V183.643H129.594H129.6ZM134.723 173.39V170.749C134.723 170.038 135.004 169.413 135.567 168.892C136.124 168.371 136.797 168.108 137.556 168.108H139.839V137.345H150.23V168.108H155.199V137.345H165.59V168.108H170.559V137.345H180.95V168.108H185.92V137.345H196.311V168.108H198.593C199.358 168.108 200.025 168.371 200.588 168.892C201.151 169.413 201.433 170.038 201.433 170.749V173.39H134.717H134.723ZM137.556 134.936C136.791 134.936 136.124 134.673 135.567 134.152C135.029 133.649 134.741 133.049 134.723 132.369H129.6V127.111L168.05 111.71L206.555 127.111V132.369H201.433C201.415 133.049 201.127 133.649 200.588 134.152C200.031 134.673 199.358 134.936 198.593 134.936H137.55H137.556Z" fill="#3657F5"/>
<path d="M168.075 111.778L206.475 127.159V132.289H201.353C201.353 132.981 201.078 133.582 200.533 134.09C199.989 134.599 199.34 134.85 198.593 134.85H137.55C136.803 134.85 136.155 134.599 135.61 134.09C135.065 133.582 134.79 132.981 134.79 132.289H129.668V127.159L168.069 111.778M196.231 137.412V168.175H198.593C199.34 168.175 199.989 168.427 200.533 168.935C201.078 169.444 201.353 170.044 201.353 170.737V173.298H134.79V170.737C134.79 170.044 135.065 169.444 135.61 168.935C136.155 168.427 136.803 168.175 137.55 168.175H139.912V137.412H150.15V168.175H155.272V137.412H165.511V168.175H170.633V137.412H180.871V168.175H185.993V137.412H196.231ZM203.709 175.866C204.456 175.866 205.105 176.117 205.649 176.626C206.194 177.135 206.469 177.735 206.469 178.428V183.557H129.668V178.428C129.668 177.735 129.943 177.135 130.488 176.626C131.032 176.117 131.681 175.866 132.428 175.866H203.709ZM168.069 111.606L168.014 111.631L129.613 127.012L129.515 127.049V132.436H134.637C134.674 133.11 134.967 133.698 135.5 134.195C136.075 134.728 136.76 134.997 137.544 134.997H198.587C199.371 134.997 200.056 134.728 200.631 134.195C201.17 133.698 201.457 133.104 201.494 132.436H206.616V127.049L206.518 127.012L168.118 111.631L168.062 111.606H168.069ZM196.384 137.253H185.84V168.016H181.024V137.253H170.48V168.016H165.664V137.253H155.119V168.016H150.303V137.253H139.759V168.016H137.55C136.767 168.016 136.081 168.286 135.506 168.819C134.931 169.352 134.637 169.995 134.637 170.731V173.446H201.506V170.731C201.506 169.995 201.213 169.352 200.637 168.819C200.062 168.286 199.377 168.016 198.593 168.016H196.384V137.253ZM203.709 175.707H132.428C131.644 175.707 130.959 175.976 130.384 176.51C129.809 177.043 129.515 177.686 129.515 178.422V183.704H206.622V178.422C206.622 177.686 206.329 177.043 205.753 176.51C205.178 175.976 204.493 175.707 203.709 175.707Z" fill="black"/>
<path d="M102.319 164.584L82.9076 199.049C82.7975 199.245 82.6751 199.429 82.5466 199.601C82.4242 199.766 82.2895 199.919 82.1488 200.06C82.1365 200.072 82.1182 200.091 82.1059 200.103C81.9713 200.238 81.8306 200.36 81.6898 200.471C81.6653 200.489 81.647 200.501 81.6225 200.52C81.5062 200.606 81.3899 200.679 81.2675 200.753C81.1635 200.814 81.0595 200.863 80.9554 200.918C80.882 200.955 80.8025 200.992 80.729 201.022C80.6189 201.065 80.5026 201.102 80.3924 201.133C80.319 201.157 80.2456 201.182 80.166 201.2C80.0375 201.231 79.909 201.243 79.7805 201.255C79.7193 201.261 79.652 201.274 79.5908 201.28C79.4011 201.292 79.2052 201.286 79.0155 201.267C78.8686 201.249 78.7279 201.225 78.581 201.188L84.6028 202.726C84.7435 202.763 84.8904 202.787 85.0372 202.806C85.227 202.83 85.4228 202.83 85.6125 202.818C85.6737 202.818 85.741 202.799 85.8022 202.793C85.9307 202.781 86.0592 202.763 86.1877 202.738C86.2612 202.72 86.3346 202.695 86.4142 202.671C86.5243 202.64 86.6406 202.603 86.7507 202.56C86.8303 202.53 86.9037 202.487 86.9833 202.45C87.0873 202.401 87.1914 202.346 87.2954 202.291C87.3199 202.272 87.3505 202.266 87.375 202.248C87.4667 202.193 87.5585 202.125 87.6442 202.058C87.6687 202.04 87.6871 202.027 87.7115 202.015C87.7115 202.015 87.7238 202.009 87.7299 202.003C87.8217 201.929 87.9135 201.856 87.9992 201.776C88.042 201.733 88.0848 201.69 88.1277 201.647C88.1399 201.635 88.1583 201.617 88.1705 201.604C88.1827 201.592 88.2011 201.58 88.2133 201.562C88.2807 201.494 88.3419 201.421 88.4031 201.347C88.4581 201.28 88.5132 201.212 88.5683 201.139C88.6234 201.071 88.6723 200.998 88.7213 200.924C88.7702 200.851 88.8192 200.777 88.862 200.704C88.8865 200.667 88.9049 200.63 88.9293 200.593L108.341 166.129L102.319 164.59V164.584Z" fill="#B29712" stroke="black" stroke-width="0.5" stroke-linecap="round" stroke-linejoin="round"/>
<path d="M96.3647 141.591C92.748 125.597 106.254 105.754 123.793 109.915C120.868 109.314 116.174 107.611 113.2 107.819C97.7049 107.929 87.479 125.119 90.2084 139.428C91.3956 146.512 95.7283 153.272 102.429 156.213C104.369 157.157 109.259 158.168 111.358 158.763C103.427 156.783 97.7783 149.454 96.3647 141.591Z" fill="#B29712" stroke="black" stroke-width="0.5" stroke-linecap="round" stroke-linejoin="round"/>
<mask id="mask0_71_1791" style="mask-type:luminance" maskUnits="userSpaceOnUse" x="119" y="100" width="14" height="6">
<path d="M119.791 100.723L125.812 102.261C128.113 102.849 130.359 103.787 132.483 105.098L126.461 103.56C124.331 102.255 122.092 101.311 119.791 100.723Z" fill="white"/>
</mask>
<g mask="url(#mask0_71_1791)">
<path d="M119.791 100.723L125.812 102.261C125.953 102.298 126.094 102.334 126.235 102.371L120.213 100.833C120.072 100.796 119.931 100.759 119.791 100.723Z" fill="#93800C" stroke="black" stroke-width="0.5" stroke-miterlimit="10"/>
<path d="M120.213 100.833L126.235 102.371C126.828 102.537 127.41 102.72 127.997 102.929L121.975 101.391C121.394 101.182 120.807 100.992 120.213 100.833Z" fill="#98850C" stroke="black" stroke-width="0.5" stroke-miterlimit="10"/>
<path d="M121.975 101.391L127.997 102.929C128.542 103.125 129.08 103.339 129.613 103.578L123.591 102.04C123.059 101.801 122.52 101.587 121.975 101.391Z" fill="#9D890C" stroke="black" stroke-width="0.5" stroke-miterlimit="10"/>
<path d="M123.591 102.04L129.613 103.578C130.121 103.805 130.629 104.05 131.124 104.314L125.103 102.776C124.601 102.512 124.099 102.267 123.591 102.04Z" fill="#A28D0D" stroke="black" stroke-width="0.5" stroke-miterlimit="10"/>
<path d="M125.103 102.776L131.124 104.314C131.583 104.559 132.036 104.816 132.483 105.092L126.461 103.554C126.014 103.278 125.562 103.021 125.103 102.776Z" fill="#A7920D" stroke="black" stroke-width="0.5" stroke-miterlimit="10"/>
</g>
<path d="M119.791 100.723L125.812 102.261C128.113 102.849 130.359 103.787 132.483 105.098L126.461 103.56C124.331 102.255 122.092 101.311 119.791 100.723Z" stroke="black" stroke-width="0.5" stroke-miterlimit="10"/>
<path d="M145.946 136.076C147.323 124.383 142.825 111.422 132.489 105.098L126.467 103.56C140.518 112.262 143.394 132.068 136.663 146.322C131.222 158.842 117.263 168.506 103.402 164.891C105.667 165.436 110.373 166.815 112.618 167.017C130.139 168.966 144.428 152.579 145.946 136.076Z" fill="#B29712" stroke="black" stroke-width="0.5" stroke-linecap="round" stroke-linejoin="round"/>
<path d="M126.461 103.554C140.463 112.176 144.337 132.944 135.224 149.141C128.695 160.717 117.343 166.717 106.591 165.479C105.153 165.313 103.721 165.019 102.319 164.584L82.9076 199.049C82.0203 200.624 80.4781 201.439 79.0155 201.274C78.4954 201.212 77.9813 201.028 77.5162 200.704L71.4578 196.524C69.6831 195.299 69.218 192.565 70.4174 190.427L89.8289 155.968C81.3532 145.366 80.4108 128.397 88.7335 115.032C95.3427 104.406 106.279 98.9393 116.602 100.128C120.017 100.52 123.365 101.648 126.461 103.548V103.554ZM129.564 145.231C136.308 133.251 133.707 117.986 123.768 111.116C121.143 109.302 118.273 108.26 115.342 107.923C107.16 106.979 98.5127 111.545 93.5497 120.363C86.8058 132.344 89.3944 147.603 99.345 154.479C101.97 156.287 104.834 157.335 107.766 157.672C115.948 158.615 124.595 154.044 129.564 145.231Z" fill="#FEDD19" stroke="black" stroke-width="0.5" stroke-linecap="round" stroke-linejoin="round"/>
<g opacity="0.47">
<path d="M115.256 108.463C126.841 109.799 134.576 121.779 132.532 135.224C130.494 148.657 119.448 158.468 107.87 157.132C96.2852 155.797 88.5622 143.816 90.6 130.383C92.6378 116.938 103.672 107.127 115.256 108.463Z" fill="#F4F4F4"/>
</g>
<path d="M90.5939 249.551H79.4378V240.439H257.85V249.551H246.81" stroke="#00FFAA" stroke-linecap="round" stroke-linejoin="round"/>
<path d="M91.0651 240.439H246.259V249.551H91.1936L91.0651 240.439Z" fill="url(#paint0_linear_71_1791)"/>
</g>
<path d="M18.4531 368.141C17.1146 368.141 16.0859 367.828 15.3672 367.203C14.6276 366.573 14.2422 365.719 14.2109 364.641H15.6406C15.6875 365.349 15.9531 365.898 16.4375 366.289C16.9115 366.685 17.5833 366.883 18.4531 366.883C20.276 366.883 21.1875 366.232 21.1875 364.93C21.1875 364.419 21.0182 364.018 20.6797 363.727C20.3411 363.451 19.8438 363.242 19.1875 363.102L17.5547 362.75C16.5703 362.542 15.8307 362.19 15.3359 361.695C14.8359 361.211 14.5859 360.555 14.5859 359.727C14.5859 358.779 14.9271 358.026 15.6094 357.469C16.2917 356.927 17.2448 356.656 18.4688 356.656C19.6719 356.656 20.6328 356.961 21.3516 357.57C22.0703 358.195 22.4375 359 22.4531 359.984H21.0312C21 359.344 20.7708 358.841 20.3438 358.477C19.9219 358.117 19.2865 357.938 18.4375 357.938C16.8385 357.938 16.0391 358.534 16.0391 359.727C16.0391 360.56 16.6745 361.115 17.9453 361.391L19.4609 361.711C21.5859 362.143 22.6484 363.216 22.6484 364.93C22.6484 365.935 22.2734 366.719 21.5234 367.281C20.7786 367.854 19.7552 368.141 18.4531 368.141ZM28.0391 368.141C26.8724 368.141 25.9583 367.747 25.2969 366.961C24.6458 366.185 24.3203 365.172 24.3203 363.922C24.3203 362.672 24.6354 361.654 25.2656 360.867C25.901 360.076 26.8177 359.68 28.0156 359.68C29.1302 359.68 30 360.047 30.625 360.781C31.2448 361.526 31.5547 362.487 31.5547 363.664V364.32H25.7344C25.7344 365.138 25.9297 365.773 26.3203 366.227C26.7214 366.706 27.2943 366.945 28.0391 366.945C28.5807 366.945 29.0339 366.833 29.3984 366.609C29.7578 366.385 29.9922 366.06 30.1016 365.633H31.4453C31.3359 366.372 30.9609 366.974 30.3203 367.438C29.6693 367.906 28.9089 368.141 28.0391 368.141ZM25.75 363.203H30.1641C30.1641 362.51 29.9818 361.951 29.6172 361.523C29.2526 361.096 28.7188 360.883 28.0156 360.883C27.2865 360.883 26.7318 361.096 26.3516 361.523C25.9661 361.956 25.7656 362.516 25.75 363.203ZM36.8672 368.141C35.6589 368.141 34.7396 367.763 34.1094 367.008C33.4688 366.258 33.1484 365.229 33.1484 363.922C33.1484 362.615 33.4688 361.578 34.1094 360.812C34.7396 360.057 35.651 359.68 36.8438 359.68C37.901 359.68 38.7083 359.951 39.2656 360.492C39.8333 361.044 40.1484 361.755 40.2109 362.625H38.8672C38.8203 362.073 38.6224 361.646 38.2734 361.344C37.9036 361.036 37.4271 360.883 36.8438 360.883C36.0312 360.883 35.4453 361.159 35.0859 361.711C34.7005 362.279 34.5078 363.016 34.5078 363.922C34.5078 364.823 34.7005 365.557 35.0859 366.125C35.4505 366.682 36.0365 366.961 36.8438 366.961C37.4635 366.961 37.9453 366.812 38.2891 366.516C38.6484 366.203 38.8516 365.781 38.8984 365.25H40.2422C40.1641 366.13 39.8385 366.833 39.2656 367.359C38.7135 367.88 37.9141 368.141 36.8672 368.141ZM47.6641 359.82H49.0078V365.023C49.0078 365.961 48.6979 366.708 48.0781 367.266C47.4583 367.839 46.6536 368.125 45.6641 368.125C44.6745 368.125 43.8698 367.839 43.25 367.266C42.6302 366.708 42.3203 365.961 42.3203 365.023V359.82H43.6641V364.797C43.6641 366.219 44.3307 366.93 45.6641 366.93C46.9974 366.93 47.6641 366.219 47.6641 364.797V359.82ZM51.7266 368V359.82H52.8984L53.0078 361.203H53.0703C53.2474 360.745 53.526 360.38 53.9062 360.109C54.2865 359.854 54.7292 359.727 55.2344 359.727H55.9688V361.023H55.3281C53.8229 361.023 53.0703 362.026 53.0703 364.031V368H51.7266ZM60.7109 368.141C59.5443 368.141 58.6302 367.747 57.9688 366.961C57.3177 366.185 56.9922 365.172 56.9922 363.922C56.9922 362.672 57.3073 361.654 57.9375 360.867C58.5729 360.076 59.4896 359.68 60.6875 359.68C61.8021 359.68 62.6719 360.047 63.2969 360.781C63.9167 361.526 64.2266 362.487 64.2266 363.664V364.32H58.4062C58.4062 365.138 58.6016 365.773 58.9922 366.227C59.3932 366.706 59.9661 366.945 60.7109 366.945C61.2526 366.945 61.7057 366.833 62.0703 366.609C62.4297 366.385 62.6641 366.06 62.7734 365.633H64.1172C64.0078 366.372 63.6328 366.974 62.9922 367.438C62.3411 367.906 61.5807 368.141 60.7109 368.141ZM58.4219 363.203H62.8359C62.8359 362.51 62.6536 361.951 62.2891 361.523C61.9245 361.096 61.3906 360.883 60.6875 360.883C59.9583 360.883 59.4036 361.096 59.0234 361.523C58.638 361.956 58.4375 362.516 58.4219 363.203ZM66.4609 368V356.156H67.8047V368H66.4609ZM71.3125 371.664V371.508L72.7031 367.938L72.6875 367.906L69.4062 359.984V359.82H70.8438L73.3281 366.242H73.3906L75.7891 359.82H77.1953V359.984L72.6719 371.664H71.3125ZM83.7578 368V356.156H85.1016V368H83.7578ZM90.875 368.141C89.6615 368.141 88.7396 367.747 88.1094 366.961C87.4896 366.185 87.1797 365.172 87.1797 363.922C87.1797 362.672 87.4948 361.654 88.125 360.867C88.7604 360.076 89.6771 359.68 90.875 359.68C92.0781 359.68 92.9974 360.076 93.6328 360.867C94.263 361.654 94.5781 362.672 94.5781 363.922C94.5781 365.172 94.2682 366.185 93.6484 366.961C93.0182 367.747 92.0938 368.141 90.875 368.141ZM90.875 366.945C91.6823 366.945 92.276 366.672 92.6562 366.125C93.026 365.573 93.2109 364.839 93.2109 363.922C93.2109 363.005 93.026 362.263 92.6562 361.695C92.276 361.154 91.6823 360.883 90.875 360.883C90.0833 360.883 89.4974 361.154 89.1172 361.695C88.7318 362.263 88.5391 363.005 88.5391 363.922C88.5391 364.839 88.7318 365.573 89.1172 366.125C89.5026 366.672 90.0885 366.945 90.875 366.945ZM99.8594 368.141C98.6458 368.141 97.724 367.747 97.0938 366.961C96.474 366.185 96.1641 365.172 96.1641 363.922C96.1641 362.672 96.4792 361.654 97.1094 360.867C97.7448 360.076 98.6615 359.68 99.8594 359.68C101.062 359.68 101.982 360.076 102.617 360.867C103.247 361.654 103.562 362.672 103.562 363.922C103.562 365.172 103.253 366.185 102.633 366.961C102.003 367.747 101.078 368.141 99.8594 368.141ZM99.8594 366.945C100.667 366.945 101.26 366.672 101.641 366.125C102.01 365.573 102.195 364.839 102.195 363.922C102.195 363.005 102.01 362.263 101.641 361.695C101.26 361.154 100.667 360.883 99.8594 360.883C99.0677 360.883 98.4818 361.154 98.1016 361.695C97.7161 362.263 97.5234 363.005 97.5234 363.922C97.5234 364.839 97.7161 365.573 98.1016 366.125C98.487 366.672 99.0729 366.945 99.8594 366.945ZM105.789 356.156H107.133V368H105.789V356.156ZM108.867 363.406L112.273 367.844V368H110.719L107.133 363.406L110.594 359.82H112.172V359.984L108.867 363.406ZM114.695 358.258C114.081 358.258 113.773 357.943 113.773 357.312C113.773 356.693 114.081 356.383 114.695 356.383C114.992 356.383 115.221 356.464 115.383 356.625C115.544 356.812 115.625 357.042 115.625 357.312C115.625 357.583 115.544 357.812 115.383 358C115.232 358.172 115.003 358.258 114.695 358.258ZM114.023 368V359.82H115.367V368H114.023ZM118.086 368V359.82H119.258L119.367 361.102H119.43C119.924 360.154 120.768 359.68 121.961 359.68C122.852 359.68 123.555 359.945 124.07 360.477C124.576 361.023 124.828 361.76 124.828 362.688V368H123.477V362.898C123.477 361.555 122.849 360.883 121.594 360.883C120.901 360.883 120.372 361.112 120.008 361.57C119.622 362.034 119.43 362.672 119.43 363.484V368H118.086ZM130.633 371.805C129.596 371.805 128.763 371.544 128.133 371.023C127.487 370.487 127.156 369.826 127.141 369.039H128.438C128.469 369.487 128.672 369.867 129.047 370.18C129.411 370.497 129.94 370.656 130.633 370.656C131.378 370.656 131.943 370.448 132.328 370.031C132.708 369.635 132.898 369.107 132.898 368.445V366.867H132.836C132.32 367.716 131.5 368.141 130.375 368.141C129.255 368.141 128.401 367.753 127.812 366.977C127.219 366.195 126.914 365.177 126.898 363.922C126.914 362.578 127.229 361.536 127.844 360.797C128.448 360.052 129.292 359.68 130.375 359.68C131.5 359.68 132.32 360.107 132.836 360.961H132.898L133.078 359.82H134.242V368.477C134.242 369.451 133.924 370.247 133.289 370.867C132.648 371.492 131.763 371.805 130.633 371.805ZM130.594 366.945C131.359 366.945 131.943 366.656 132.344 366.078C132.734 365.526 132.93 364.807 132.93 363.922C132.93 363.036 132.734 362.31 132.344 361.742C131.948 361.169 131.365 360.883 130.594 360.883C129.786 360.883 129.201 361.164 128.836 361.727C128.451 362.294 128.258 363.026 128.258 363.922C128.258 364.802 128.451 365.526 128.836 366.094C129.206 366.661 129.792 366.945 130.594 366.945ZM142.273 368V360.945H140.812V359.82H142.273V358.398C142.273 357.69 142.492 357.109 142.93 356.656C143.367 356.219 143.943 356 144.656 356C145.026 356 145.367 356.036 145.68 356.109V357.234C145.346 357.177 145.081 357.148 144.883 357.148C144.477 357.148 144.167 357.255 143.953 357.469C143.729 357.693 143.617 358.003 143.617 358.398V359.82H145.602V360.945H143.617V368H142.273ZM150.578 368.141C149.365 368.141 148.443 367.747 147.812 366.961C147.193 366.185 146.883 365.172 146.883 363.922C146.883 362.672 147.198 361.654 147.828 360.867C148.464 360.076 149.38 359.68 150.578 359.68C151.781 359.68 152.701 360.076 153.336 360.867C153.966 361.654 154.281 362.672 154.281 363.922C154.281 365.172 153.971 366.185 153.352 366.961C152.721 367.747 151.797 368.141 150.578 368.141ZM150.578 366.945C151.385 366.945 151.979 366.672 152.359 366.125C152.729 365.573 152.914 364.839 152.914 363.922C152.914 363.005 152.729 362.263 152.359 361.695C151.979 361.154 151.385 360.883 150.578 360.883C149.786 360.883 149.201 361.154 148.82 361.695C148.435 362.263 148.242 363.005 148.242 363.922C148.242 364.839 148.435 365.573 148.82 366.125C149.206 366.672 149.792 366.945 150.578 366.945ZM156.508 368V359.82H157.68L157.789 361.203H157.852C158.029 360.745 158.307 360.38 158.688 360.109C159.068 359.854 159.51 359.727 160.016 359.727H160.75V361.023H160.109C158.604 361.023 157.852 362.026 157.852 364.031V368H156.508ZM171.414 368.141C170.289 368.141 169.469 367.716 168.953 366.867H168.883L168.711 368H167.539V356.156H168.883V360.961H168.953C169.469 360.107 170.289 359.68 171.414 359.68C172.529 359.68 173.383 360.07 173.977 360.852C174.565 361.628 174.867 362.646 174.883 363.906C174.867 365.234 174.56 366.268 173.961 367.008C173.331 367.763 172.482 368.141 171.414 368.141ZM171.188 366.945C171.99 366.945 172.583 366.661 172.969 366.094C173.339 365.526 173.523 364.797 173.523 363.906C173.523 363.021 173.339 362.294 172.969 361.727C172.589 361.164 171.995 360.883 171.188 360.883C170.422 360.883 169.841 361.164 169.445 361.727C169.049 362.299 168.852 363.026 168.852 363.906C168.852 364.781 169.049 365.505 169.445 366.078C169.841 366.656 170.422 366.945 171.188 366.945ZM179.328 368.141C178.474 368.141 177.786 367.901 177.266 367.422C176.74 366.948 176.477 366.346 176.477 365.617C176.477 364.867 176.76 364.253 177.328 363.773C177.896 363.294 178.74 363.055 179.859 363.055C180.526 363.055 181.198 363.151 181.875 363.344V362.531C181.875 362.047 181.719 361.641 181.406 361.312C181.083 360.99 180.609 360.828 179.984 360.828C179.411 360.828 178.969 360.969 178.656 361.25C178.349 361.526 178.188 361.872 178.172 362.289H176.883C176.883 361.497 177.174 360.867 177.758 360.398C178.341 359.919 179.083 359.68 179.984 359.68C181 359.68 181.789 359.945 182.352 360.477C182.909 361.003 183.188 361.674 183.188 362.492V368H182.047L181.953 366.852H181.891C181.38 367.711 180.526 368.141 179.328 368.141ZM179.57 367.023C180.253 367.023 180.807 366.81 181.234 366.383C181.661 365.956 181.875 365.438 181.875 364.828V364.414C181.26 364.221 180.589 364.125 179.859 364.125C178.51 364.125 177.836 364.617 177.836 365.602C177.836 366.029 177.987 366.37 178.289 366.625C178.57 366.891 178.997 367.023 179.57 367.023ZM185.898 368V359.82H187.07L187.18 361.102H187.242C187.737 360.154 188.581 359.68 189.773 359.68C190.664 359.68 191.367 359.945 191.883 360.477C192.388 361.023 192.641 361.76 192.641 362.688V368H191.289V362.898C191.289 361.555 190.661 360.883 189.406 360.883C188.714 360.883 188.185 361.112 187.82 361.57C187.435 362.034 187.242 362.672 187.242 363.484V368H185.898ZM195.352 356.156H196.695V368H195.352V356.156ZM198.43 363.406L201.836 367.844V368H200.281L196.695 363.406L200.156 359.82H201.734V359.984L198.43 363.406ZM210.594 368.141C209.74 368.141 209.052 367.901 208.531 367.422C208.005 366.948 207.742 366.346 207.742 365.617C207.742 364.867 208.026 364.253 208.594 363.773C209.161 363.294 210.005 363.055 211.125 363.055C211.792 363.055 212.464 363.151 213.141 363.344V362.531C213.141 362.047 212.984 361.641 212.672 361.312C212.349 360.99 211.875 360.828 211.25 360.828C210.677 360.828 210.234 360.969 209.922 361.25C209.615 361.526 209.453 361.872 209.438 362.289H208.148C208.148 361.497 208.44 360.867 209.023 360.398C209.607 359.919 210.349 359.68 211.25 359.68C212.266 359.68 213.055 359.945 213.617 360.477C214.174 361.003 214.453 361.674 214.453 362.492V368H213.312L213.219 366.852H213.156C212.646 367.711 211.792 368.141 210.594 368.141ZM210.836 367.023C211.518 367.023 212.073 366.81 212.5 366.383C212.927 365.956 213.141 365.438 213.141 364.828V364.414C212.526 364.221 211.854 364.125 211.125 364.125C209.776 364.125 209.102 364.617 209.102 365.602C209.102 366.029 209.253 366.37 209.555 366.625C209.836 366.891 210.263 367.023 210.836 367.023ZM220.242 368.141C219.034 368.141 218.115 367.763 217.484 367.008C216.844 366.258 216.523 365.229 216.523 363.922C216.523 362.615 216.844 361.578 217.484 360.812C218.115 360.057 219.026 359.68 220.219 359.68C221.276 359.68 222.083 359.951 222.641 360.492C223.208 361.044 223.523 361.755 223.586 362.625H222.242C222.195 362.073 221.997 361.646 221.648 361.344C221.279 361.036 220.802 360.883 220.219 360.883C219.406 360.883 218.82 361.159 218.461 361.711C218.076 362.279 217.883 363.016 217.883 363.922C217.883 364.823 218.076 365.557 218.461 366.125C218.826 366.682 219.411 366.961 220.219 366.961C220.839 366.961 221.32 366.812 221.664 366.516C222.023 366.203 222.227 365.781 222.273 365.25H223.617C223.539 366.13 223.214 366.833 222.641 367.359C222.089 367.88 221.289 368.141 220.242 368.141ZM228.93 368.141C227.721 368.141 226.802 367.763 226.172 367.008C225.531 366.258 225.211 365.229 225.211 363.922C225.211 362.615 225.531 361.578 226.172 360.812C226.802 360.057 227.714 359.68 228.906 359.68C229.964 359.68 230.771 359.951 231.328 360.492C231.896 361.044 232.211 361.755 232.273 362.625H230.93C230.883 362.073 230.685 361.646 230.336 361.344C229.966 361.036 229.49 360.883 228.906 360.883C228.094 360.883 227.508 361.159 227.148 361.711C226.763 362.279 226.57 363.016 226.57 363.922C226.57 364.823 226.763 365.557 227.148 366.125C227.513 366.682 228.099 366.961 228.906 366.961C229.526 366.961 230.008 366.812 230.352 366.516C230.711 366.203 230.914 365.781 230.961 365.25H232.305C232.227 366.13 231.901 366.833 231.328 367.359C230.776 367.88 229.977 368.141 228.93 368.141ZM237.594 368.141C236.38 368.141 235.458 367.747 234.828 366.961C234.208 366.185 233.898 365.172 233.898 363.922C233.898 362.672 234.214 361.654 234.844 360.867C235.479 360.076 236.396 359.68 237.594 359.68C238.797 359.68 239.716 360.076 240.352 360.867C240.982 361.654 241.297 362.672 241.297 363.922C241.297 365.172 240.987 366.185 240.367 366.961C239.737 367.747 238.812 368.141 237.594 368.141ZM237.594 366.945C238.401 366.945 238.995 366.672 239.375 366.125C239.745 365.573 239.93 364.839 239.93 363.922C239.93 363.005 239.745 362.263 239.375 361.695C238.995 361.154 238.401 360.883 237.594 360.883C236.802 360.883 236.216 361.154 235.836 361.695C235.451 362.263 235.258 363.005 235.258 363.922C235.258 364.839 235.451 365.573 235.836 366.125C236.221 366.672 236.807 366.945 237.594 366.945ZM248.711 359.82H250.055V365.023C250.055 365.961 249.745 366.708 249.125 367.266C248.505 367.839 247.701 368.125 246.711 368.125C245.721 368.125 244.917 367.839 244.297 367.266C243.677 366.708 243.367 365.961 243.367 365.023V359.82H244.711V364.797C244.711 366.219 245.378 366.93 246.711 366.93C248.044 366.93 248.711 366.219 248.711 364.797V359.82ZM252.773 368V359.82H253.945L254.055 361.102H254.117C254.612 360.154 255.456 359.68 256.648 359.68C257.539 359.68 258.242 359.945 258.758 360.477C259.263 361.023 259.516 361.76 259.516 362.688V368H258.164V362.898C258.164 361.555 257.536 360.883 256.281 360.883C255.589 360.883 255.06 361.112 254.695 361.57C254.31 362.034 254.117 362.672 254.117 363.484V368H252.773ZM264.945 368.141C264.174 368.141 263.62 367.956 263.281 367.586C262.953 367.227 262.789 366.682 262.789 365.953V360.961H261.43V359.82H262.82V358.078L263.977 357.633H264.133V359.82H266.133V360.961H264.133V365.844C264.133 366.234 264.219 366.516 264.391 366.688C264.573 366.87 264.844 366.961 265.203 366.961C265.5 366.961 265.768 366.93 266.008 366.867H266.164V368.016C265.805 368.099 265.398 368.141 264.945 368.141ZM271.023 368.141C270.039 368.141 269.245 367.885 268.641 367.375C268.016 366.885 267.695 366.193 267.68 365.297H269.023C269.023 365.839 269.206 366.245 269.57 366.516C269.935 366.802 270.419 366.945 271.023 366.945C272.273 366.945 272.898 366.555 272.898 365.773C272.898 365.18 272.482 364.792 271.648 364.609L270.016 364.305C269.339 364.164 268.828 363.898 268.484 363.508C268.12 363.112 267.938 362.615 267.938 362.016C267.938 361.328 268.211 360.768 268.758 360.336C269.315 359.898 270.034 359.68 270.914 359.68C271.831 359.68 272.589 359.919 273.188 360.398C273.776 360.872 274.07 361.513 274.07 362.32H272.758C272.742 361.826 272.565 361.448 272.227 361.188C271.878 360.938 271.44 360.812 270.914 360.812C270.393 360.812 269.987 360.914 269.695 361.117C269.388 361.331 269.234 361.63 269.234 362.016C269.234 362.646 269.708 363.031 270.656 363.172L271.938 363.406C272.74 363.589 273.326 363.857 273.695 364.211C274.07 364.586 274.258 365.107 274.258 365.773C274.258 366.503 273.948 367.081 273.328 367.508C272.714 367.93 271.945 368.141 271.023 368.141ZM281.289 368V356.156H282.633V368H281.289ZM286.023 358.258C285.409 358.258 285.102 357.943 285.102 357.312C285.102 356.693 285.409 356.383 286.023 356.383C286.32 356.383 286.549 356.464 286.711 356.625C286.872 356.812 286.953 357.042 286.953 357.312C286.953 357.583 286.872 357.812 286.711 358C286.56 358.172 286.331 358.258 286.023 358.258ZM285.352 368V359.82H286.695V368H285.352ZM289.414 368V359.82H290.586L290.695 361.102H290.758C291.253 360.154 292.096 359.68 293.289 359.68C294.18 359.68 294.883 359.945 295.398 360.477C295.904 361.023 296.156 361.76 296.156 362.688V368H294.805V362.898C294.805 361.555 294.177 360.883 292.922 360.883C292.229 360.883 291.701 361.112 291.336 361.57C290.951 362.034 290.758 362.672 290.758 363.484V368H289.414ZM298.867 356.156H300.211V368H298.867V356.156ZM301.945 363.406L305.352 367.844V368H303.797L300.211 363.406L303.672 359.82H305.25V359.984L301.945 363.406ZM309.852 368.141C308.685 368.141 307.771 367.747 307.109 366.961C306.458 366.185 306.133 365.172 306.133 363.922C306.133 362.672 306.448 361.654 307.078 360.867C307.714 360.076 308.63 359.68 309.828 359.68C310.943 359.68 311.812 360.047 312.438 360.781C313.057 361.526 313.367 362.487 313.367 363.664V364.32H307.547C307.547 365.138 307.742 365.773 308.133 366.227C308.534 366.706 309.107 366.945 309.852 366.945C310.393 366.945 310.846 366.833 311.211 366.609C311.57 366.385 311.805 366.06 311.914 365.633H313.258C313.148 366.372 312.773 366.974 312.133 367.438C311.482 367.906 310.721 368.141 309.852 368.141ZM307.562 363.203H311.977C311.977 362.51 311.794 361.951 311.43 361.523C311.065 361.096 310.531 360.883 309.828 360.883C309.099 360.883 308.544 361.096 308.164 361.523C307.779 361.956 307.578 362.516 307.562 363.203ZM318.438 368.141C317.365 368.141 316.521 367.763 315.906 367.008C315.292 366.268 314.977 365.234 314.961 363.906C314.977 362.651 315.281 361.633 315.875 360.852C316.469 360.07 317.323 359.68 318.438 359.68C319.562 359.68 320.383 360.107 320.898 360.961H320.961V356.156H322.305V368H321.141L320.961 366.867H320.898C320.383 367.716 319.562 368.141 318.438 368.141ZM318.656 366.945C319.422 366.945 320.005 366.656 320.406 366.078C320.797 365.51 320.992 364.786 320.992 363.906C320.992 363.021 320.797 362.294 320.406 361.727C320.005 361.164 319.422 360.883 318.656 360.883C317.849 360.883 317.263 361.164 316.898 361.727C316.513 362.294 316.32 363.021 316.32 363.906C316.32 364.797 316.513 365.526 316.898 366.094C317.268 366.661 317.854 366.945 318.656 366.945ZM75.5781 392L73.2578 383.984V383.82H74.6484L76.2812 390.18H76.3438L78.2656 383.82H79.6406L81.5625 390.18H81.625L83.2578 383.82H84.6172V383.984L82.3125 392H80.9219L79 385.648H78.9375L76.9688 392H75.5781ZM87.0469 382.258C86.4323 382.258 86.125 381.943 86.125 381.312C86.125 380.693 86.4323 380.383 87.0469 380.383C87.3438 380.383 87.5729 380.464 87.7344 380.625C87.8958 380.812 87.9766 381.042 87.9766 381.312C87.9766 381.583 87.8958 381.812 87.7344 382C87.5833 382.172 87.3542 382.258 87.0469 382.258ZM86.375 392V383.82H87.7188V392H86.375ZM93.1562 392.141C92.3854 392.141 91.8307 391.956 91.4922 391.586C91.1641 391.227 91 390.682 91 389.953V384.961H89.6406V383.82H91.0312V382.078L92.1875 381.633H92.3438V383.82H94.3438V384.961H92.3438V389.844C92.3438 390.234 92.4297 390.516 92.6016 390.688C92.7839 390.87 93.0547 390.961 93.4141 390.961C93.7109 390.961 93.9792 390.93 94.2188 390.867H94.375V392.016C94.0156 392.099 93.6094 392.141 93.1562 392.141ZM96.5312 392V380.156H97.875V385.102H97.9453C98.4401 384.154 99.2708 383.68 100.438 383.68C101.339 383.68 102.047 383.945 102.562 384.477C103.078 385.008 103.336 385.745 103.336 386.688V392H101.992V386.898C101.992 385.555 101.352 384.883 100.07 384.883C99.4089 384.883 98.875 385.117 98.4688 385.586C98.0729 386.044 97.875 386.69 97.875 387.523V392H96.5312ZM111.633 395.664V395.508L113.023 391.938L113.008 391.906L109.727 383.984V383.82H111.164L113.648 390.242H113.711L116.109 383.82H117.516V383.984L112.992 395.664H111.633ZM122.18 392.141C120.966 392.141 120.044 391.747 119.414 390.961C118.794 390.185 118.484 389.172 118.484 387.922C118.484 386.672 118.799 385.654 119.43 384.867C120.065 384.076 120.982 383.68 122.18 383.68C123.383 383.68 124.302 384.076 124.938 384.867C125.568 385.654 125.883 386.672 125.883 387.922C125.883 389.172 125.573 390.185 124.953 390.961C124.323 391.747 123.398 392.141 122.18 392.141ZM122.18 390.945C122.987 390.945 123.581 390.672 123.961 390.125C124.331 389.573 124.516 388.839 124.516 387.922C124.516 387.005 124.331 386.263 123.961 385.695C123.581 385.154 122.987 384.883 122.18 384.883C121.388 384.883 120.802 385.154 120.422 385.695C120.036 386.263 119.844 387.005 119.844 387.922C119.844 388.839 120.036 389.573 120.422 390.125C120.807 390.672 121.393 390.945 122.18 390.945ZM133.297 383.82H134.641V389.023C134.641 389.961 134.331 390.708 133.711 391.266C133.091 391.839 132.286 392.125 131.297 392.125C130.307 392.125 129.503 391.839 128.883 391.266C128.263 390.708 127.953 389.961 127.953 389.023V383.82H129.297V388.797C129.297 390.219 129.964 390.93 131.297 390.93C132.63 390.93 133.297 390.219 133.297 388.797V383.82ZM137.359 392V383.82H138.531L138.641 385.203H138.703C138.88 384.745 139.159 384.38 139.539 384.109C139.919 383.854 140.362 383.727 140.867 383.727H141.602V385.023H140.961C139.456 385.023 138.703 386.026 138.703 388.031V392H137.359ZM157.352 383.68C158.242 383.68 158.935 383.945 159.43 384.477C159.924 385.029 160.172 385.766 160.172 386.688V392H158.828V386.898C158.828 385.555 158.224 384.883 157.016 384.883C156.38 384.883 155.88 385.112 155.516 385.57C155.151 386.029 154.969 386.667 154.969 387.484V392H153.625V386.898C153.625 385.555 153.023 384.883 151.82 384.883C151.169 384.883 150.661 385.112 150.297 385.57C149.922 386.039 149.734 386.677 149.734 387.484V392H148.391V383.82H149.562L149.672 385.102H149.734C150.229 384.154 151.047 383.68 152.188 383.68C153.365 383.68 154.185 384.154 154.648 385.102H154.711C155.206 384.154 156.086 383.68 157.352 383.68ZM165.945 392.141C164.732 392.141 163.81 391.747 163.18 390.961C162.56 390.185 162.25 389.172 162.25 387.922C162.25 386.672 162.565 385.654 163.195 384.867C163.831 384.076 164.747 383.68 165.945 383.68C167.148 383.68 168.068 384.076 168.703 384.867C169.333 385.654 169.648 386.672 169.648 387.922C169.648 389.172 169.339 390.185 168.719 390.961C168.089 391.747 167.164 392.141 165.945 392.141ZM165.945 390.945C166.753 390.945 167.346 390.672 167.727 390.125C168.096 389.573 168.281 388.839 168.281 387.922C168.281 387.005 168.096 386.263 167.727 385.695C167.346 385.154 166.753 384.883 165.945 384.883C165.154 384.883 164.568 385.154 164.188 385.695C163.802 386.263 163.609 387.005 163.609 387.922C163.609 388.839 163.802 389.573 164.188 390.125C164.573 390.672 165.159 390.945 165.945 390.945ZM175.75 392.141C174.625 392.141 173.805 391.716 173.289 390.867H173.219L173.047 392H171.875V380.156H173.219V384.961H173.289C173.805 384.107 174.625 383.68 175.75 383.68C176.865 383.68 177.719 384.07 178.312 384.852C178.901 385.628 179.203 386.646 179.219 387.906C179.203 389.234 178.896 390.268 178.297 391.008C177.667 391.763 176.818 392.141 175.75 392.141ZM175.523 390.945C176.326 390.945 176.919 390.661 177.305 390.094C177.674 389.526 177.859 388.797 177.859 387.906C177.859 387.021 177.674 386.294 177.305 385.727C176.924 385.164 176.331 384.883 175.523 384.883C174.758 384.883 174.177 385.164 173.781 385.727C173.385 386.299 173.188 387.026 173.188 387.906C173.188 388.781 173.385 389.505 173.781 390.078C174.177 390.656 174.758 390.945 175.523 390.945ZM182.125 382.258C181.51 382.258 181.203 381.943 181.203 381.312C181.203 380.693 181.51 380.383 182.125 380.383C182.422 380.383 182.651 380.464 182.812 380.625C182.974 380.812 183.055 381.042 183.055 381.312C183.055 381.583 182.974 381.812 182.812 382C182.661 382.172 182.432 382.258 182.125 382.258ZM181.453 392V383.82H182.797V392H181.453ZM185.516 392V380.156H186.859V392H185.516ZM192.656 392.141C191.49 392.141 190.576 391.747 189.914 390.961C189.263 390.185 188.938 389.172 188.938 387.922C188.938 386.672 189.253 385.654 189.883 384.867C190.518 384.076 191.435 383.68 192.633 383.68C193.747 383.68 194.617 384.047 195.242 384.781C195.862 385.526 196.172 386.487 196.172 387.664V388.32H190.352C190.352 389.138 190.547 389.773 190.938 390.227C191.339 390.706 191.911 390.945 192.656 390.945C193.198 390.945 193.651 390.833 194.016 390.609C194.375 390.385 194.609 390.06 194.719 389.633H196.062C195.953 390.372 195.578 390.974 194.938 391.438C194.286 391.906 193.526 392.141 192.656 392.141ZM190.367 387.203H194.781C194.781 386.51 194.599 385.951 194.234 385.523C193.87 385.096 193.336 384.883 192.633 384.883C191.904 384.883 191.349 385.096 190.969 385.523C190.583 385.956 190.383 386.516 190.367 387.203ZM203.203 392V383.82H204.375L204.484 385.102H204.547C205.042 384.154 205.885 383.68 207.078 383.68C207.969 383.68 208.672 383.945 209.188 384.477C209.693 385.023 209.945 385.76 209.945 386.688V392H208.594V386.898C208.594 385.555 207.966 384.883 206.711 384.883C206.018 384.883 205.49 385.112 205.125 385.57C204.74 386.034 204.547 386.672 204.547 387.484V392H203.203ZM217.844 383.82H219.188V389.023C219.188 389.961 218.878 390.708 218.258 391.266C217.638 391.839 216.833 392.125 215.844 392.125C214.854 392.125 214.049 391.839 213.43 391.266C212.81 390.708 212.5 389.961 212.5 389.023V383.82H213.844V388.797C213.844 390.219 214.51 390.93 215.844 390.93C217.177 390.93 217.844 390.219 217.844 388.797V383.82ZM230.867 383.68C231.758 383.68 232.451 383.945 232.945 384.477C233.44 385.029 233.688 385.766 233.688 386.688V392H232.344V386.898C232.344 385.555 231.74 384.883 230.531 384.883C229.896 384.883 229.396 385.112 229.031 385.57C228.667 386.029 228.484 386.667 228.484 387.484V392H227.141V386.898C227.141 385.555 226.539 384.883 225.336 384.883C224.685 384.883 224.177 385.112 223.812 385.57C223.438 386.039 223.25 386.677 223.25 387.484V392H221.906V383.82H223.078L223.188 385.102H223.25C223.745 384.154 224.562 383.68 225.703 383.68C226.88 383.68 227.701 384.154 228.164 385.102H228.227C228.721 384.154 229.602 383.68 230.867 383.68ZM240.281 392.141C239.156 392.141 238.336 391.716 237.82 390.867H237.75L237.578 392H236.406V380.156H237.75V384.961H237.82C238.336 384.107 239.156 383.68 240.281 383.68C241.396 383.68 242.25 384.07 242.844 384.852C243.432 385.628 243.734 386.646 243.75 387.906C243.734 389.234 243.427 390.268 242.828 391.008C242.198 391.763 241.349 392.141 240.281 392.141ZM240.055 390.945C240.857 390.945 241.451 390.661 241.836 390.094C242.206 389.526 242.391 388.797 242.391 387.906C242.391 387.021 242.206 386.294 241.836 385.727C241.456 385.164 240.862 384.883 240.055 384.883C239.289 384.883 238.708 385.164 238.312 385.727C237.917 386.299 237.719 387.026 237.719 387.906C237.719 388.781 237.917 389.505 238.312 390.078C238.708 390.656 239.289 390.945 240.055 390.945ZM249.062 392.141C247.896 392.141 246.982 391.747 246.32 390.961C245.669 390.185 245.344 389.172 245.344 387.922C245.344 386.672 245.659 385.654 246.289 384.867C246.924 384.076 247.841 383.68 249.039 383.68C250.154 383.68 251.023 384.047 251.648 384.781C252.268 385.526 252.578 386.487 252.578 387.664V388.32H246.758C246.758 389.138 246.953 389.773 247.344 390.227C247.745 390.706 248.318 390.945 249.062 390.945C249.604 390.945 250.057 390.833 250.422 390.609C250.781 390.385 251.016 390.06 251.125 389.633H252.469C252.359 390.372 251.984 390.974 251.344 391.438C250.693 391.906 249.932 392.141 249.062 392.141ZM246.773 387.203H251.188C251.188 386.51 251.005 385.951 250.641 385.523C250.276 385.096 249.742 384.883 249.039 384.883C248.31 384.883 247.755 385.096 247.375 385.523C246.99 385.956 246.789 386.516 246.773 387.203ZM254.812 392V383.82H255.984L256.094 385.203H256.156C256.333 384.745 256.612 384.38 256.992 384.109C257.372 383.854 257.815 383.727 258.32 383.727H259.055V385.023H258.414C256.909 385.023 256.156 386.026 256.156 388.031V392H254.812ZM261.43 388.445L261.094 382.336V380.797H262.602V382.336L262.188 388.445H261.43ZM261.836 392.141C261.523 392.141 261.289 392.052 261.133 391.875C260.971 391.688 260.891 391.453 260.891 391.172C260.891 390.87 260.977 390.633 261.148 390.461C261.294 390.294 261.523 390.211 261.836 390.211C262.138 390.211 262.372 390.294 262.539 390.461C262.701 390.648 262.781 390.885 262.781 391.172C262.781 391.453 262.701 391.688 262.539 391.875C262.362 392.052 262.128 392.141 261.836 392.141Z" fill="black"/>
<defs>
<linearGradient id="paint0_linear_71_1791" x1="168.662" y1="219.192" x2="168.662" y2="264.241" gradientUnits="userSpaceOnUse">
<stop stop-color="#00FFAA"/>
<stop offset="1" stop-opacity="0"/>
</linearGradient>
<clipPath id="clip0_71_1791">
<rect width="316" height="304" fill="white" transform="translate(10.5)"/>
</clipPath>
</defs>
</svg>
