<svg width="100" height="100" viewBox="0 0 100 100" fill="none" xmlns="http://www.w3.org/2000/svg">
<rect width="100" height="100" fill="white"/>
<path d="M37.4999 60C38.4945 60 39.4483 59.6049 40.1516 58.9017C40.8549 58.1984 41.2499 57.2446 41.2499 56.25C41.2621 56.1253 41.2621 55.9997 41.2499 55.875L48.2249 48.9H48.7999H49.3749L53.3999 52.925C53.3999 52.925 53.3999 53.05 53.3999 53.125C53.3999 54.1196 53.795 55.0734 54.4983 55.7767C55.2016 56.4799 56.1554 56.875 57.1499 56.875C58.1445 56.875 59.0983 56.4799 59.8016 55.7767C60.5049 55.0734 60.8999 54.1196 60.8999 53.125V52.925L69.9999 43.75C70.7416 43.75 71.4666 43.5301 72.0833 43.118C72.7 42.706 73.1807 42.1203 73.4645 41.4351C73.7483 40.7498 73.8226 39.9958 73.6779 39.2684C73.5332 38.541 73.176 37.8728 72.6516 37.3483C72.1271 36.8239 71.459 36.4667 70.7315 36.3221C70.0041 36.1774 69.2501 36.2516 68.5649 36.5355C67.8797 36.8193 67.294 37.2999 66.8819 37.9166C66.4699 38.5333 66.2499 39.2583 66.2499 40C66.2377 40.1247 66.2377 40.2503 66.2499 40.375L57.2249 49.4H56.8249L52.4999 45C52.4999 44.0054 52.1049 43.0516 51.4016 42.3483C50.6983 41.6451 49.7445 41.25 48.7499 41.25C47.7554 41.25 46.8015 41.6451 46.0983 42.3483C45.395 43.0516 44.9999 44.0054 44.9999 45L37.4999 52.5C36.5054 52.5 35.5515 52.8951 34.8483 53.5983C34.145 54.3016 33.7499 55.2554 33.7499 56.25C33.7499 57.2446 34.145 58.1984 34.8483 58.9017C35.5515 59.6049 36.5054 60 37.4999 60V60ZM71.2499 70H28.7499V27.5C28.7499 26.837 28.4865 26.2011 28.0177 25.7322C27.5489 25.2634 26.913 25 26.2499 25C25.5869 25 24.951 25.2634 24.4822 25.7322C24.0133 26.2011 23.7499 26.837 23.7499 27.5V72.5C23.7499 73.163 24.0133 73.7989 24.4822 74.2678C24.951 74.7366 25.5869 75 26.2499 75H71.2499C71.913 75 72.5489 74.7366 73.0177 74.2678C73.4865 73.7989 73.7499 73.163 73.7499 72.5C73.7499 71.837 73.4865 71.2011 73.0177 70.7322C72.5489 70.2634 71.913 70 71.2499 70Z" fill="#2B2B2B"/>
</svg>
