<svg width="100" height="100" viewBox="0 0 100 100" fill="none" xmlns="http://www.w3.org/2000/svg">
<rect width="100" height="100" fill="white"/>
<path d="M73.0499 50.0001C74.2943 48.631 74.9889 46.8503 74.9999 45.0001C74.9999 43.011 74.2097 41.1033 72.8032 39.6968C71.3967 38.2903 69.489 37.5001 67.4999 37.5001H54.5499C54.9492 36.3706 55.0722 35.1618 54.9084 33.9749C54.7447 32.7881 54.299 31.6578 53.6086 30.6786C52.9183 29.6994 52.0034 28.8998 50.9406 28.3468C49.8778 27.7938 48.698 27.5035 47.4999 27.5001H32.4999C30.5108 27.5001 28.6031 28.2903 27.1966 29.6968C25.7901 31.1033 24.9999 33.011 24.9999 35.0001C25.0109 36.8503 25.7054 38.631 26.9499 40.0001C25.72 41.3752 25.04 43.1553 25.04 45.0001C25.04 46.845 25.72 48.6251 26.9499 50.0001C25.72 51.3752 25.04 53.1553 25.04 55.0001C25.04 56.845 25.72 58.6251 26.9499 60.0001C25.7054 61.3692 25.0109 63.15 24.9999 65.0001C24.9999 66.9892 25.7901 68.8969 27.1966 70.3034C28.6031 71.7099 30.5108 72.5001 32.4999 72.5001H67.4999C68.9443 72.4924 70.3557 72.0678 71.5646 71.2772C72.7735 70.4867 73.7284 69.3639 74.3145 68.0437C74.9007 66.7236 75.0931 65.2623 74.8688 63.8354C74.6444 62.4085 74.0128 61.0767 73.0499 60.0001C74.2798 58.6251 74.9597 56.845 74.9597 55.0001C74.9597 53.1553 74.2798 51.3752 73.0499 50.0001ZM47.4999 67.5001H32.4999C31.8368 67.5001 31.201 67.2367 30.7321 66.7679C30.2633 66.299 29.9999 65.6632 29.9999 65.0001C29.9999 64.3371 30.2633 63.7012 30.7321 63.2324C31.201 62.7635 31.8368 62.5001 32.4999 62.5001H47.4999C48.1629 62.5001 48.7988 62.7635 49.2676 63.2324C49.7365 63.7012 49.9999 64.3371 49.9999 65.0001C49.9999 65.6632 49.7365 66.299 49.2676 66.7679C48.7988 67.2367 48.1629 67.5001 47.4999 67.5001ZM47.4999 57.5001H32.4999C31.8368 57.5001 31.201 57.2367 30.7321 56.7679C30.2633 56.299 29.9999 55.6632 29.9999 55.0001C29.9999 54.3371 30.2633 53.7012 30.7321 53.2324C31.201 52.7635 31.8368 52.5001 32.4999 52.5001H47.4999C48.1629 52.5001 48.7988 52.7635 49.2676 53.2324C49.7365 53.7012 49.9999 54.3371 49.9999 55.0001C49.9999 55.6632 49.7365 56.299 49.2676 56.7679C48.7988 57.2367 48.1629 57.5001 47.4999 57.5001ZM47.4999 47.5001H32.4999C31.8368 47.5001 31.201 47.2367 30.7321 46.7679C30.2633 46.299 29.9999 45.6632 29.9999 45.0001C29.9999 44.3371 30.2633 43.7012 30.7321 43.2324C31.201 42.7635 31.8368 42.5001 32.4999 42.5001H47.4999C48.1629 42.5001 48.7988 42.7635 49.2676 43.2324C49.7365 43.7012 49.9999 44.3371 49.9999 45.0001C49.9999 45.6632 49.7365 46.299 49.2676 46.7679C48.7988 47.2367 48.1629 47.5001 47.4999 47.5001ZM47.4999 37.5001H32.4999C31.8368 37.5001 31.201 37.2367 30.7321 36.7679C30.2633 36.299 29.9999 35.6632 29.9999 35.0001C29.9999 34.3371 30.2633 33.7012 30.7321 33.2324C31.201 32.7635 31.8368 32.5001 32.4999 32.5001H47.4999C48.1629 32.5001 48.7988 32.7635 49.2676 33.2324C49.7365 33.7012 49.9999 34.3371 49.9999 35.0001C49.9999 35.6632 49.7365 36.299 49.2676 36.7679C48.7988 37.2367 48.1629 37.5001 47.4999 37.5001ZM69.2249 66.7751C69.0033 67.0089 68.7355 67.194 68.4385 67.3188C68.1416 67.4436 67.8219 67.5054 67.4999 67.5001H54.5499C55.1494 65.8874 55.1494 64.1129 54.5499 62.5001H67.4999C68.1629 62.5001 68.7988 62.7635 69.2676 63.2324C69.7365 63.7012 69.9999 64.3371 69.9999 65.0001C69.9953 65.3327 69.9243 65.6609 69.7913 65.9657C69.6582 66.2705 69.4656 66.5457 69.2249 66.7751V66.7751ZM69.2249 56.7751C69.0033 57.0089 68.7355 57.194 68.4385 57.3188C68.1416 57.4436 67.8219 57.5054 67.4999 57.5001H54.5499C55.1494 55.8874 55.1494 54.1129 54.5499 52.5001H67.4999C68.1629 52.5001 68.7988 52.7635 69.2676 53.2324C69.7365 53.7012 69.9999 54.3371 69.9999 55.0001C69.9953 55.3327 69.9243 55.6609 69.7913 55.9657C69.6582 56.2705 69.4656 56.5457 69.2249 56.7751V56.7751ZM69.2249 46.7751C69.0033 47.0089 68.7355 47.194 68.4385 47.3188C68.1416 47.4436 67.8219 47.5054 67.4999 47.5001H54.5499C55.1494 45.8874 55.1494 44.1129 54.5499 42.5001H67.4999C68.1629 42.5001 68.7988 42.7635 69.2676 43.2324C69.7365 43.7012 69.9999 44.3371 69.9999 45.0001C69.9953 45.3327 69.9243 45.6609 69.7913 45.9657C69.6582 46.2705 69.4656 46.5457 69.2249 46.7751V46.7751Z" fill="#2B2B2B"/>
</svg>
