<svg width="100" height="100" viewBox="0 0 100 100" fill="none" xmlns="http://www.w3.org/2000/svg">
<rect width="100" height="100" fill="white"/>
<path d="M81.6769 49.9996C81.7192 49.9555 81.7299 49.8898 81.7039 49.8345C81.6778 49.7793 81.6203 49.7458 81.5593 49.7505L48.3087 52.2974C48.2726 52.3001 48.2389 52.316 48.2138 52.3421L45.9204 54.7239C45.878 54.7679 45.8672 54.8336 45.8933 54.8889C45.9193 54.9442 45.9769 54.9777 46.0378 54.9731L79.2885 52.4321C79.3246 52.4293 79.3584 52.4134 79.3835 52.3872L81.6769 49.9996Z" fill="#121010" stroke="black" stroke-width="0.294775" stroke-linejoin="round"/>
<path d="M48.4262 52.5465C48.458 52.5134 48.4726 52.4675 48.4657 52.4222L43.4015 18.9711C43.3931 18.9156 43.3539 18.8697 43.3004 18.8527C43.2469 18.8357 43.1883 18.8506 43.1495 18.8911L40.8561 21.2787C40.8244 21.3118 40.8098 21.3576 40.8167 21.4029L45.8809 54.8481C45.8893 54.9035 45.9285 54.9494 45.9819 54.9664C46.0354 54.9835 46.0939 54.9687 46.1328 54.9282L48.4262 52.5465Z" fill="#B76521" stroke="black" stroke-width="0.294775" stroke-linejoin="round"/>
<path d="M43.2446 18.8465C43.2038 18.8496 43.166 18.8696 43.1405 18.9017C43.115 18.9338 43.104 18.975 43.1101 19.0155L48.1744 52.4607C48.1859 52.537 48.2544 52.5915 48.3313 52.5856L81.5819 50.0446C81.6228 50.0415 81.6605 50.0215 81.686 49.9894C81.7116 49.9574 81.7226 49.9161 81.7164 49.8756C78.9107 31.3304 61.6878 17.4374 43.2446 18.8465Z" fill="#ED8936" stroke="black" stroke-width="0.294775" stroke-linejoin="round"/>
<path d="M41.0431 46.5411C41.0855 46.497 41.0962 46.4313 41.0701 46.3761C41.044 46.3208 40.9865 46.2873 40.9256 46.292L7.66906 48.8389C7.633 48.8416 7.59922 48.8575 7.57414 48.8836L5.28079 51.2654C5.23837 51.3094 5.22757 51.3751 5.25363 51.4304C5.2797 51.4857 5.33721 51.5192 5.39819 51.5146L38.6547 48.9736C38.6908 48.9708 38.7247 48.9549 38.7498 48.9287L41.0431 46.5411Z" fill="#C53030" stroke="black" stroke-width="0.294775" stroke-linejoin="round"/>
<path d="M7.78644 49.0881C7.81823 49.0551 7.83285 49.0092 7.826 48.9638C6.26481 38.6341 9.5391 29.0484 15.9486 22.3906C15.9496 22.3895 15.9507 22.3885 15.9517 22.3874L15.9517 22.3874C16.0082 22.3287 16.0064 22.2354 15.9478 22.179C15.8891 22.1225 15.7958 22.1243 15.7394 22.1829C15.7394 22.1829 15.7394 22.1829 15.7394 22.1829C15.7391 22.1832 15.7388 22.1835 15.7385 22.1838C15.7382 22.1842 15.7379 22.1845 15.7375 22.1848L13.446 24.5647L13.446 24.5647C6.97004 31.2955 3.66623 40.9689 5.24119 51.3897C5.24958 51.4452 5.28874 51.4911 5.34221 51.5081C5.39568 51.5251 5.45417 51.5103 5.49309 51.4699L7.78644 49.0881Z" fill="#C53030" stroke="black" stroke-width="0.294775" stroke-linejoin="round"/>
<path d="M36.0185 12.9779C36.007 12.9016 35.9385 12.8472 35.8616 12.853C17.4036 14.2629 4.72783 30.4491 7.54071 49.0023C7.55228 49.0786 7.62073 49.1331 7.69766 49.1272L40.9483 46.5862C40.9891 46.5831 41.0269 46.5631 41.0524 46.531C41.0779 46.499 41.0889 46.4577 41.0828 46.4172L36.0185 12.9779Z" fill="#E53E3E" stroke="black" stroke-width="0.294775" stroke-linejoin="round"/>
<mask id="mask0_71_2618" style="mask-type:luminance" maskUnits="userSpaceOnUse" x="51" y="75" width="23" height="14">
<path d="M73.7529 76.3552C73.8094 76.2965 73.8076 76.2032 73.749 76.1468C73.6903 76.0903 73.597 76.0921 73.5406 76.1507L73.5406 76.1507C73.539 76.1523 73.5375 76.1539 73.5359 76.1555C68.5324 81.3503 61.6231 84.7753 53.6144 85.3855C53.5784 85.3882 53.5445 85.4042 53.5195 85.4302L51.2261 87.812C51.1837 87.856 51.1729 87.9217 51.1989 87.977C51.225 88.0323 51.2825 88.0658 51.3435 88.0612C59.427 87.4453 66.4057 83.9863 71.4596 78.7369L73.7529 76.3552C73.7529 76.3552 73.7529 76.3552 73.7529 76.3552Z" fill="white" stroke="white" stroke-width="0.294775" stroke-linejoin="round"/>
</mask>
<g mask="url(#mask0_71_2618)">
<path d="M73.7527 76.3552C73.8091 76.2965 73.8074 76.2032 73.7487 76.1468C73.6901 76.0903 73.5968 76.0921 73.5403 76.1507L73.5403 76.1507C73.5388 76.1523 73.5372 76.1539 73.5357 76.1555C68.5322 81.3503 61.6228 84.7753 53.6142 85.3855C53.5781 85.3882 53.5443 85.4042 53.5192 85.4302L51.2259 87.812C51.1834 87.856 51.1726 87.9217 51.1987 87.977C51.2247 88.0323 51.2823 88.0658 51.3432 88.0612C59.4268 87.4453 66.4055 83.9863 71.4593 78.7369L73.7527 76.3552C73.7527 76.3552 73.7527 76.3552 73.7527 76.3552Z" fill="#2B6CB0" stroke="black" stroke-width="0.294775" stroke-linejoin="round"/>
</g>
<path d="M53.7318 85.6343C53.7636 85.6012 53.7782 85.5553 53.7714 85.51L48.7071 52.0707C48.6987 52.0152 48.6596 51.9693 48.6061 51.9523C48.5526 51.9353 48.4942 51.9501 48.4552 51.9905L46.1619 54.3723C46.1301 54.4053 46.1155 54.4513 46.1223 54.4966L51.1807 87.9418C51.1891 87.9972 51.2282 88.0431 51.2817 88.0602C51.3352 88.0772 51.3937 88.0624 51.4326 88.022L53.7318 85.6343Z" fill="#121010" stroke="black" stroke-width="0.294775" stroke-linejoin="round"/>
<path d="M81.9579 49.5302C81.9463 49.454 81.878 49.3995 81.8011 49.4053C81.7867 49.4064 81.773 49.4095 81.7602 49.4143L48.5503 51.9521C48.5094 51.9553 48.4717 51.9753 48.4462 52.0073C48.4207 52.0394 48.4097 52.0806 48.4158 52.1212L53.48 85.5604C53.4916 85.6368 53.5601 85.6912 53.637 85.6853C72.0891 84.2696 84.7648 68.0833 81.9579 49.5302Z" fill="#3182CE" stroke="black" stroke-width="0.294775" stroke-linejoin="round"/>
<mask id="mask1_71_2618" style="mask-type:luminance" maskUnits="userSpaceOnUse" x="12" y="54" width="42" height="35">
<path d="M53.7617 85.4452C53.7617 85.3851 53.7252 85.331 53.6694 85.3085C53.6345 85.2944 53.5964 85.2945 53.5625 85.3072C35.2921 86.6809 18.2263 72.9073 15.4393 54.5248C15.4309 54.4693 15.3917 54.4234 15.3383 54.4064C15.2848 54.3894 15.2263 54.4042 15.1874 54.4446L12.8941 56.8264C12.8623 56.8595 12.8476 56.9054 12.8545 56.9508C15.6662 75.4959 32.889 89.389 51.3323 87.9739C51.3683 87.9712 51.4021 87.9552 51.4272 87.9292L53.6936 85.5754C53.7347 85.5491 53.7617 85.503 53.7617 85.4511V85.4452Z" fill="white" stroke="white" stroke-width="0.294775" stroke-linejoin="round"/>
</mask>
<g mask="url(#mask1_71_2618)">
<mask id="path-12-outside-1_71_2618" maskUnits="userSpaceOnUse" x="12.0005" y="53.5469" width="42" height="35" fill="black">
<rect fill="white" x="12.0005" y="53.5469" width="42" height="35"/>
<path d="M53.6146 85.4452L51.3212 87.827C32.9568 89.236 15.8008 75.3993 13.0005 56.9287L15.2938 54.5469C18.0942 73.0175 35.2501 86.8542 53.6146 85.4511"/>
</mask>
<path d="M53.6146 85.4452L51.3212 87.827C32.9568 89.236 15.8008 75.3993 13.0005 56.9287L15.2938 54.5469C18.0942 73.0175 35.2501 86.8542 53.6146 85.4511" fill="#2F855A"/>
<path d="M51.3212 87.827L51.3438 88.1209C51.4159 88.1153 51.4834 88.0835 51.5336 88.0314L51.3212 87.827ZM13.0005 56.9287L12.7881 56.7242C12.7245 56.7903 12.6953 56.8822 12.709 56.9728L13.0005 56.9287ZM15.2938 54.5469L15.5853 54.5027C15.5685 54.3918 15.4901 54.3 15.3832 54.266C15.2763 54.232 15.1593 54.2616 15.0815 54.3424L15.2938 54.5469ZM53.4022 85.2407L51.1089 87.6225L51.5336 88.0314L53.8269 85.6496L53.4022 85.2407ZM51.2987 87.5331C33.0917 88.93 16.0697 75.206 13.2919 56.8845L12.709 56.9728C15.532 75.5925 32.8218 89.542 51.3438 88.1209L51.2987 87.5331ZM13.2128 57.1331L15.5062 54.7513L15.0815 54.3424L12.7881 56.7242L13.2128 57.1331ZM15.0024 54.5911C17.8254 73.2107 35.1151 87.1602 53.637 85.745L53.5921 85.1572C35.3851 86.5483 18.363 72.8242 15.5853 54.5027L15.0024 54.5911Z" fill="black" mask="url(#path-12-outside-1_71_2618)"/>
</g>
<path d="M48.6957 51.9779C48.6841 51.9016 48.6157 51.8472 48.5387 51.853L15.2822 54.394C15.2414 54.3971 15.2037 54.4171 15.1781 54.4492C15.1526 54.4812 15.1416 54.5225 15.1477 54.563C17.9535 73.1082 35.1764 87.0013 53.6254 85.5921C53.6663 85.589 53.704 85.569 53.7295 85.5369C53.755 85.5049 53.7661 85.4636 53.7599 85.4231L48.6957 51.9779Z" fill="#38A169" stroke="black" stroke-width="0.294775" stroke-linejoin="round"/>
<path opacity="0.5" d="M61.278 38.8381C52.2991 34.7879 42.0822 37.659 37.4425 45.2111C37.0738 45.8038 36.7449 46.4202 36.4579 47.0564C32.4372 55.9704 37.018 66.7474 46.6925 71.1219C54.563 74.6592 63.365 72.8905 68.5471 67.3369C69.7667 66.029 70.7626 64.5292 71.4949 62.8976C75.5333 53.9601 70.9525 43.189 61.278 38.8381ZM67.7041 61.182C67.0985 62.5225 66.2534 63.7412 65.2103 64.7783C63.8832 66.0807 62.3095 67.105 60.5814 67.7914C58.8534 68.4778 57.0057 68.8123 55.1467 68.7754C52.8214 68.7736 50.5235 68.273 48.4081 67.3075C40.8501 63.8881 37.2067 55.5754 40.2605 48.772C40.4197 48.4301 40.5907 48.094 40.7793 47.7698C43.0904 43.6724 47.6063 41.1668 52.8238 41.1668C55.1489 41.1709 57.4463 41.6713 59.5624 42.6348C63.2004 44.2398 66.1037 47.1515 67.6982 50.7942C68.4211 52.426 68.795 54.1909 68.796 55.9757C68.797 57.7605 68.4251 59.5258 67.7041 61.1584V61.182Z" fill="#191C1F"/>
<path opacity="0.5" d="M69.8748 62L68 64.4938L75.841 70.519L77.7158 68.0252L69.8748 62Z" fill="#191C1F"/>
<path d="M70.1121 60.9414L68.2373 63.4352L76.0783 69.4604L77.9531 66.9666L70.1121 60.9414Z" fill="#ECC94B" stroke="#0D0D0D" stroke-width="0.294775" stroke-linejoin="round"/>
<ellipse opacity="0.78" cx="55.7015" cy="51.9108" rx="15.9178" ry="15.3283" fill="#D9D9D9"/>
<mask id="mask2_71_2618" style="mask-type:alpha" maskUnits="userSpaceOnUse" x="39" y="36" width="33" height="32">
<ellipse cx="55.7015" cy="51.9108" rx="15.9178" ry="15.3283" fill="#D9D9D9"/>
</mask>
<g mask="url(#mask2_71_2618)">
<rect opacity="0.5" x="64.0508" y="40.5474" width="6.49227" height="26.5297" transform="rotate(25.8545 64.0508 40.5474)" fill="white"/>
<rect opacity="0.5" x="58.5386" y="39.5659" width="2.69352" height="26.5297" transform="rotate(25.8545 58.5386 39.5659)" fill="white"/>
</g>
<mask id="mask3_71_2618" style="mask-type:alpha" maskUnits="userSpaceOnUse" x="48" y="49" width="35" height="37">
<path d="M81.9579 49.5307C81.9463 49.4544 81.878 49.4 81.8011 49.4058C81.7867 49.4068 81.773 49.4099 81.7602 49.4148L48.5503 51.9526C48.5094 51.9558 48.4717 51.9758 48.4462 52.0078C48.4207 52.0399 48.4097 52.0811 48.4158 52.1217L53.48 85.5609C53.4916 85.6372 53.5601 85.6917 53.637 85.6858C72.0891 84.2701 84.7648 68.0838 81.9579 49.5307Z" fill="#3182CE" stroke="black" stroke-width="0.294775" stroke-linejoin="round"/>
</mask>
<g mask="url(#mask3_71_2618)">
<path opacity="0.5" d="M77.2174 65.1294C76.6279 64.699 75.3662 65.3711 74.2991 66.7211C73.2321 68.0712 72.6956 69.8222 73.179 70.4884L90.0283 83.4585L94.0668 78.0994L77.2174 65.1294Z" fill="#191C1F"/>
</g>
<path d="M77.4581 64.562C76.8686 64.1316 75.607 64.8037 74.5399 66.1538C73.4728 67.5038 72.9363 69.2548 73.4197 69.921L90.2691 82.8911L94.3075 77.5321L77.4581 64.562Z" fill="#ECC94B" stroke="#0D0D0D" stroke-width="0.294775" stroke-linejoin="round"/>
<path d="M94.52 77.7677C94.8914 78.4752 94.3844 80.0257 93.3409 81.3817C92.2974 82.7377 90.8353 83.4746 90.2929 82.8792C89.7505 82.2837 90.2929 80.5209 91.4131 79.1119C92.5332 77.7029 93.7359 77.0898 94.3313 77.5201C94.4115 77.5879 94.4759 77.6724 94.52 77.7677Z" fill="#D69E2E" stroke="#0D0D0D" stroke-width="0.294775" stroke-linejoin="round"/>
<path d="M40.0809 41.8225C39.7122 42.4151 39.3833 43.0316 39.0964 43.6678C35.0756 52.5818 39.6564 63.3587 49.3309 67.7332C57.2014 71.2705 66.0034 69.5018 71.1856 63.9483C66.5576 71.5122 56.3289 74.3833 47.3501 70.3272C37.6697 65.9528 33.0947 55.1817 37.1155 46.2677C37.6368 45.1185 38.2875 44.0326 39.0551 43.0311L41.036 40.4312L40.0809 41.8225Z" fill="#D69E2E" stroke="#0D0D0D" stroke-width="0.294775" stroke-linejoin="round"/>
<path d="M63.9164 35.4729C54.9376 31.4227 44.7207 34.2938 40.0809 41.8459C39.7122 42.4385 39.3833 43.055 39.0964 43.6912C35.0756 52.6052 39.6564 63.3822 49.3309 67.7566C57.2014 71.2939 66.0034 69.5253 71.1856 63.9717C72.4052 62.6638 73.4011 61.1639 74.1333 59.5324C78.1717 50.5948 73.5909 39.8237 63.9164 35.4729ZM70.3425 57.8168C69.7369 59.1573 68.8918 60.376 67.8487 61.4131C66.5216 62.7154 64.9479 63.7398 63.2199 64.4262C61.4918 65.1125 59.6441 65.4471 57.7851 65.4102C55.4598 65.4083 53.1619 64.9078 51.0465 63.9422C43.4885 60.5228 39.8451 52.2102 42.899 45.4068C43.0581 45.0648 43.2291 44.7288 43.4178 44.4045C45.7288 40.3072 50.2447 37.8016 55.4623 37.8016C57.7873 37.8056 60.0847 38.3061 62.2008 39.2696C65.8388 40.8746 68.7421 43.7863 70.3366 47.4289C71.0595 49.0608 71.4334 50.8257 71.4345 52.6105C71.4355 54.3952 71.0635 56.1606 70.3425 57.7932V57.8168Z" fill="#ECC94B" stroke="#0D0D0D" stroke-width="0.294775" stroke-linejoin="round"/>
<path d="M70.3422 57.7934C69.739 59.1422 68.8938 60.3691 67.8484 61.4132C68.0399 61.0871 68.2131 60.7505 68.3672 60.4051C69.0931 58.7708 69.4682 57.0024 69.4682 55.2141C69.4682 53.4258 69.0931 51.6574 68.3672 50.0231C66.7724 46.382 63.869 43.4723 60.2314 41.8696C58.1183 40.9035 55.8222 40.4029 53.4987 40.4017C51.6381 40.3634 49.7887 40.6979 48.0594 41.3854C46.33 42.0729 44.7557 43.0995 43.4292 44.4047C45.7402 40.3073 50.2562 37.8018 55.4737 37.8018C57.7988 37.8058 60.0962 38.3063 62.2123 39.2697C65.8503 40.8747 68.7536 43.7865 70.348 47.4291C71.0691 49.0618 71.441 50.8271 71.44 52.6119C71.439 54.3967 71.065 56.1615 70.3422 57.7934Z" fill="#D69E2E" stroke="#0D0D0D" stroke-width="0.294775" stroke-linejoin="round"/>
</svg>
