<svg width="21" height="20" viewBox="0 0 21 20" fill="none" xmlns="http://www.w3.org/2000/svg">
<path d="M0.535244 14.9561C0.547218 14.6126 0.579151 14.2711 0.633038 13.9316C0.633038 13.9316 0.633038 13.9276 0.633038 13.9256C0.720854 13.3732 0.858564 12.8308 1.0342 12.3005C1.0342 12.3005 1.0342 12.2985 1.0342 12.2965C1.44134 11.0771 2.04807 9.92809 2.80248 8.89155C2.94019 8.70272 3.08389 8.52193 3.22959 8.34114C3.22959 8.34114 3.22959 8.34114 3.23158 8.33913C3.86425 7.57579 4.59272 6.88678 5.42697 6.35043H5.42897C6.07761 5.98684 13.6297 1.4992 14.1846 1.32243C14.9689 1.00504 15.871 0.86643 16.6833 1.16373C16.9827 1.25413 18.1962 2.01546 18.4875 2.17214C17.6054 1.65388 16.5077 1.77039 15.5936 2.14402C15.3901 2.10585 7.50062 6.81647 7.10545 7.0073C6.80807 7.18006 6.52267 7.37491 6.25124 7.58584C4.74241 8.765 3.59682 10.3781 2.82244 12.1277C1.89439 14.245 1.16792 17.8769 3.44913 19.3614C3.05795 19.1123 1.85847 18.4956 1.55311 18.1641C0.722851 17.3385 0.501314 16.0911 0.533247 14.9561H0.535244Z" fill="#D6BB1D" stroke="#010101" stroke-width="0.0940717" stroke-miterlimit="10"/>
<path d="M7.10553 7.00714C4.24155 8.67042 1.9304 12.7041 1.93838 16.0146C1.94836 19.3271 4.27547 20.6609 7.13946 18.9976L11.7059 16.344L15.7753 17.7823L14.8333 14.5281C17.6953 12.8628 20.0104 8.83113 20.0005 5.51863C19.9905 2.20613 17.6614 0.872296 14.7994 2.53557L7.10553 7.00714Z" fill="#FFDE1D" stroke="black" stroke-width="0.0940717" stroke-linecap="round" stroke-linejoin="round"/>
<path d="M14.5205 9.82212C14.0182 9.52838 14.02 8.58184 14.5245 7.70798C15.029 6.83411 15.8452 6.36383 16.3474 6.65758C16.8497 6.95132 16.8479 7.89786 16.3434 8.77173C15.8388 9.64559 15.0227 10.1159 14.5205 9.82212Z" fill="#736410" stroke="black" stroke-width="0.0940717" stroke-miterlimit="10"/>
<path d="M10.4973 12.494C9.99502 12.2003 9.99684 11.2537 10.5013 10.3799C11.0058 9.50599 11.822 9.03571 12.3242 9.32945C12.8265 9.6232 12.8247 10.5697 12.3202 11.4436C11.8157 12.3175 10.9995 12.7877 10.4973 12.494Z" fill="#736410" stroke="black" stroke-width="0.0940717" stroke-miterlimit="10"/>
<path d="M6.35811 15.5218C5.85586 15.2281 5.85768 14.2815 6.36218 13.4077C6.86669 12.5338 7.68283 12.0635 8.18508 12.3573C8.68733 12.651 8.6855 13.5976 8.181 14.4714C7.67649 15.3453 6.86036 15.8156 6.35811 15.5218Z" fill="#736410" stroke="black" stroke-width="0.0940717" stroke-miterlimit="10"/>
</svg>
