<svg width="144" height="144" viewBox="0 0 144 144" fill="none" xmlns="http://www.w3.org/2000/svg">
<path d="M73.3376 144C111.088 144 141.691 129.515 141.691 111.647C141.691 93.7792 111.088 79.2944 73.3376 79.2944C35.5877 79.2944 4.98511 93.7792 4.98511 111.647C4.98511 129.515 35.5877 144 73.3376 144Z" fill="black"/>
<mask id="mask0_71_2117" style="mask-type:alpha" maskUnits="userSpaceOnUse" x="-13" y="0" width="157" height="144">
<path d="M73.3152 143.664C111.061 143.664 143.925 126.118 143.925 126.118C143.925 126.118 139.568 3.74304 101.821 3.74304C64.0751 3.74304 -56.1631 -31.0651 4.97004 111.613C4.97004 129.505 35.5693 143.664 73.3152 143.664Z" fill="black"/>
</mask>
<g mask="url(#mask0_71_2117)">
<path d="M112.626 28.1498C112.626 26.8077 112.059 25.4398 110.988 24.6075C110.801 24.4591 110.595 24.3365 110.376 24.2268C109.782 23.8268 105.301 23.4074 104.552 23.2461C106.377 23.4977 107.641 25.2463 107.777 27.0142C107.874 27.9885 103.205 158.678 103.172 159.742C103.018 161.188 102.218 162.594 100.948 163.33C100.406 163.646 99.7933 163.814 99.1678 163.82H36.9315L41.7551 164.498H103.991C104.617 164.491 105.23 164.323 105.765 164.007C106.635 163.51 107.293 162.678 107.661 161.749C107.88 161.201 107.996 160.613 108.022 160.026C107.977 159.626 112.671 28.4982 112.62 28.1498H112.626Z" fill="#0157B5" stroke="black" stroke-width="0.0441176" stroke-miterlimit="10"/>
<path d="M36.939 163.904C35.9846 163.904 35.0754 163.504 34.3789 162.787C33.5406 161.923 33.0892 160.665 33.1343 159.348L37.7322 27.6914C37.8225 25.1815 39.6668 23.1426 41.8465 23.1426H104.083C105.037 23.1426 105.946 23.5362 106.636 24.2588C107.475 25.1234 107.926 26.3816 107.881 27.6978L103.283 159.355C103.193 161.865 101.349 163.904 99.1689 163.904H36.939Z" fill="#3657F5"/>
<path d="M104.089 23.2204C106.23 23.2204 107.894 25.227 107.81 27.6918L103.212 159.349C103.128 161.814 101.322 163.82 99.1813 163.82H36.9386C34.7977 163.82 33.1275 161.814 33.2177 159.349L37.8156 27.6918C37.8995 25.227 39.7116 23.2204 41.8525 23.2204H104.089ZM104.089 23.0591H41.8525C39.6277 23.0591 37.7447 25.1367 37.6544 27.6853L33.0565 159.342C33.0114 160.684 33.4692 161.956 34.3205 162.839C35.0298 163.575 35.9584 163.982 36.9386 163.982H99.1749C101.4 163.982 103.276 161.904 103.367 159.355L107.964 27.6982C108.01 26.3562 107.552 25.0786 106.701 24.2011C105.991 23.4656 105.063 23.0591 104.089 23.0591Z" fill="black"/>
<path d="M100.354 27.7236C101.709 27.7236 102.766 28.9947 102.715 30.5497L98.6198 147.644C98.5682 149.206 97.4203 150.47 96.0661 150.47H41.8713C40.5171 150.47 39.466 149.199 39.5176 147.644L43.6125 30.5497C43.6641 28.9883 44.8119 27.7236 46.1662 27.7236H100.361H100.354ZM98.4779 147.644L102.573 30.5497C102.624 29.0786 101.631 27.8849 100.348 27.8849H46.1533C44.8764 27.8849 43.7995 29.0786 43.7479 30.5497L39.653 147.644C39.6014 149.115 40.5945 150.309 41.8713 150.309H96.0661C97.3494 150.309 98.4263 149.115 98.4779 147.644Z" fill="black"/>
<path d="M102.573 30.549L101.038 74.4691L100.683 84.4959L100.425 91.9223L99.7675 110.75L98.4777 147.644C98.4262 149.115 97.3492 150.308 96.0724 150.308H41.8776C40.6008 150.308 39.6077 149.115 39.6593 147.644L39.9172 140.314L40.4718 124.454L40.7298 117.028L41.078 107.001L43.7477 30.549C43.7993 29.0715 44.8763 27.8843 46.1531 27.8843H100.348C101.631 27.8843 102.624 29.0715 102.573 30.549Z" fill="black"/>
<path opacity="0.16" d="M100.425 91.9229L99.7669 110.75L39.6329 144.36L39.9167 140.314L40.4713 124.455L100.425 91.9229Z" fill="white"/>
<path opacity="0.16" d="M101.038 74.4761L100.683 84.4963V84.5028L40.7299 117.028L41.0781 107.002L101.038 74.4761Z" fill="white"/>
<mask id="mask1_71_2117" style="mask-type:luminance" maskUnits="userSpaceOnUse" x="23" y="104" width="5" height="2">
<path d="M26.8042 105.181L23.8442 104.768C23.9539 104.781 24.0635 104.794 24.1796 104.794L27.1395 105.207C27.0234 105.207 26.9138 105.2 26.8042 105.181Z" fill="white"/>
</mask>
<g mask="url(#mask1_71_2117)">
<path d="M24.1793 104.794L27.1393 105.207C27.0232 105.207 26.9136 105.2 26.8039 105.181L23.844 104.768C23.9536 104.781 24.0632 104.794 24.1793 104.794Z" fill="#858585"/>
</g>
<path d="M70.4999 104.794L73.4598 105.207H27.1389L24.179 104.794H70.4999Z" fill="#D69E2E"/>
<path d="M50.6331 52.7996C50.4779 52.6801 50.3173 52.5878 50.1468 52.5129C50.2213 52.5226 50.2997 52.5327 50.3811 52.5432C50.6636 52.5795 50.9824 52.6205 51.2983 52.6637C51.6932 52.7178 52.0846 52.7753 52.3984 52.8318C52.5554 52.8601 52.6924 52.888 52.8004 52.9149C52.9101 52.9422 52.985 52.9674 53.0216 52.9888L53.0214 52.9891L53.027 52.9915C53.2105 53.0675 53.3878 53.1688 53.5459 53.2891L53.5578 53.2981H53.564C53.9131 53.5696 54.1822 53.9279 54.371 54.3308C54.371 54.3308 54.371 54.3308 54.371 54.3308L75.9158 100.56C75.9158 100.56 75.9158 100.56 75.9158 100.56C76.1266 101.032 76.2347 101.545 76.2227 102.059H76.21L76.2086 102.102C76.1831 102.886 75.8838 103.657 75.3682 104.249C74.886 104.801 74.1831 105.162 73.4505 105.163L70.882 104.805C71.8249 104.652 72.5472 104 72.9582 103.171C73.4244 102.231 73.494 101.057 73.0294 100.11C73.0294 100.11 73.0293 100.11 73.0292 100.11L51.4846 53.8805L51.4846 53.8805L51.4844 53.8802C51.2755 53.4426 51.0006 53.0819 50.6331 52.7996Z" fill="#D69E2E" stroke="black" stroke-width="0.0882352"/>
<path d="M22.0514 100.144L22.0514 100.144C21.5005 101.166 21.5245 102.318 21.9413 103.213C22.358 104.108 23.1648 104.744 24.1793 104.744H70.5002C71.5186 104.744 72.3711 104.108 72.8514 103.211C73.3316 102.315 73.4363 101.163 72.9623 100.141L51.4173 53.9115L22.0514 100.144ZM22.0514 100.144L46.8273 53.9136L22.0514 100.144ZM49.1744 52.3884C50.0658 52.3884 50.9405 52.8939 51.4173 53.9114L46.8273 53.9136C47.3748 52.8945 48.2891 52.3884 49.1744 52.3884Z" fill="#ECC94B" stroke="black" stroke-width="0.0882352"/>
<path d="M46.1299 93.5553C46.1299 92.2842 47.2133 91.1293 48.632 91.1293C49.9733 91.1293 51.0567 92.2907 51.0567 93.5553C51.0567 94.9426 49.9733 96.0975 48.632 96.0975C47.2133 96.0975 46.1299 94.9426 46.1299 93.5553ZM46.5039 69.979H50.8761L49.9411 87.8387H47.4003L46.5039 69.979Z" fill="black"/>
</g>
</svg>
